<svg xmlns="http://www.w3.org/2000/svg" width="38" height="34" viewBox="0 0 38 34">
  <g id="Group_40169" data-name="Group 40169" transform="translate(-169 -384)">
    <path id="Icon_metro-image" data-name="Icon metro-image" d="M30.692,5.731l0,0V28.228l0,0H4.449l0,0V5.734l0,0Zm0-1.875H4.446A1.881,1.881,0,0,0,2.571,5.731v22.5a1.881,1.881,0,0,0,1.875,1.875H30.7a1.881,1.881,0,0,0,1.875-1.875V5.731A1.881,1.881,0,0,0,30.7,3.856Zm-3.75,6.562a2.813,2.813,0,1,1-2.812-2.812,2.812,2.812,0,0,1,2.813,2.812Zm1.875,15.938H6.321v-3.75l6.563-11.25,7.5,9.375h1.875l6.563-5.625Z" transform="translate(166.429 380.144)" fill="#ff6792"/>
    <g id="Ellipse_83" data-name="Ellipse 83" transform="translate(187 398)" fill="#f5f5f5" stroke="#ff6792" stroke-width="1.5">
      <circle cx="10" cy="10" r="10" stroke="none"/>
      <circle cx="10" cy="10" r="9.25" fill="none"/>
    </g>
    <g id="Group_40168" data-name="Group 40168" transform="translate(0 1)">
      <line id="Line_15" data-name="Line 15" x2="10" transform="translate(192 407)" fill="none" stroke="#ff6792" stroke-linecap="round" stroke-width="1.7"/>
      <line id="Line_16" data-name="Line 16" x2="10" transform="translate(197 402) rotate(90)" fill="none" stroke="#ff6792" stroke-linecap="round" stroke-width="1.7"/>
    </g>
  </g>
</svg>
