<svg width="41" height="40" viewBox="0 0 41 40" fill="none" xmlns="http://www.w3.org/2000/svg">
<g clip-path="url(#clip0)">
<path d="M29.2432 40H12.8074C11.8383 40 11.0497 39.2115 11.0497 38.2423V37.4545C6.94539 35.562 2.58895 29.9476 2.58895 26.4439C2.58895 25.4747 3.37749 24.6862 4.34665 24.6862H7.00601C7.32966 24.6862 7.59191 24.9484 7.59191 25.2721C7.59191 25.5957 7.32966 25.858 7.00601 25.858H4.34665C4.02355 25.858 3.76075 26.1208 3.76075 26.4439C3.76075 27.8441 4.74334 29.9666 6.32504 31.9831C7.94618 34.0499 9.96683 35.7241 11.7527 36.4846H23.8434C24.1671 36.4846 24.4293 36.7469 24.4293 37.0705C24.4293 37.3942 24.1671 37.6564 23.8434 37.6564H12.2215V38.2423C12.2215 38.5654 12.4843 38.8282 12.8074 38.8282H29.2432C29.5663 38.8282 29.8291 38.5654 29.8291 38.2423V37.6564H26.1872C25.8635 37.6564 25.6013 37.3942 25.6013 37.0705C25.6013 36.7469 25.8635 36.4846 26.1872 36.4846H30.2978C32.0837 35.7241 34.1044 34.0499 35.7256 31.9831C37.3072 29.9665 38.2898 27.8441 38.2898 26.4439C38.2898 26.1208 38.027 25.858 37.7039 25.858H31.0199L29.5386 27.3393C29.4287 27.4491 29.2797 27.5108 29.1243 27.5108C28.9688 27.5108 28.8199 27.4491 28.7099 27.3393L26.0417 24.671C25.8128 24.4421 25.8128 24.0711 26.0417 23.8423C26.2705 23.6136 26.6415 23.6136 26.8703 23.8423L29.1243 26.0964L30.8683 24.3523C30.979 24.2417 31.0399 24.0946 31.0399 23.938C31.0399 23.7815 30.979 23.6344 30.8683 23.5238L27.7857 20.4411L21.4845 26.7424L24.5671 29.8249C24.7955 30.0536 25.1673 30.0534 25.3956 29.8249L25.81 29.4106L23.5559 27.1566C23.327 26.9278 23.327 26.5568 23.5558 26.328C23.7847 26.0993 24.1557 26.0993 24.3843 26.328L26.6384 28.5821L27.0693 28.1511C27.2983 27.9223 27.6692 27.9225 27.8979 28.1511C28.1268 28.38 28.1268 28.7509 27.8979 28.9797L26.2241 30.6535C25.8921 30.9855 25.4508 31.1683 24.9813 31.1683C24.5117 31.1683 24.0703 30.9855 23.7383 30.6535L20.5853 27.5005C20.0246 27.7693 19.347 27.7265 18.8131 27.3494L16.7011 25.8578C16.6977 25.8579 16.6942 25.8579 16.6907 25.8579H16.3227C15.3535 25.8579 14.565 26.6464 14.565 27.6156V30.854C14.565 31.3322 14.3665 31.7958 14.0204 32.1259C13.6693 32.4607 13.2096 32.6329 12.723 32.6096C11.7846 32.5654 11.0496 31.7797 11.0496 30.8209V25.8579H9.34945C9.0258 25.8579 8.76355 25.5957 8.76355 25.272C8.76355 24.9484 9.0258 24.6861 9.34945 24.6861H15.042L14.5351 24.3281C13.9602 23.9222 13.6835 23.215 13.8299 22.5266L14.5837 18.9824C14.9083 17.4559 14.4433 15.8858 13.3398 14.7824L1.55308 2.99563C1.21498 2.65745 1.02749 2.18927 1.03882 1.7111C1.05022 1.22613 1.25458 0.778817 1.61409 0.451728C2.30889 -0.180653 3.38413 -0.144874 4.06229 0.533207L15.8258 12.2967C16.9293 13.4003 18.4996 13.8653 20.0259 13.5406C20.3422 13.4732 20.6535 13.6753 20.7208 13.9917C20.7881 14.3083 20.5862 14.6193 20.2697 14.6867C18.3537 15.0945 16.3824 14.5105 14.9972 13.1254L3.23367 1.36183C3.00283 1.13082 2.63004 1.11137 2.40279 1.31831C2.28249 1.42776 2.21413 1.57712 2.2103 1.73868C2.20647 1.90046 2.26733 2.05264 2.3817 2.16701L14.1687 13.9538C15.5538 15.339 16.1376 17.3101 15.7301 19.2263L14.9762 22.7705C14.9274 23 15.0197 23.2357 15.2113 23.371L19.4893 26.3924C19.7232 26.5574 20.0395 26.5304 20.2417 26.3281L27.3715 19.1982C27.5738 18.9959 27.6009 18.6795 27.4358 18.4459L24.4145 14.1679C24.2792 13.9764 24.0436 13.8838 23.814 13.9328L22.7114 14.1673C22.3951 14.2344 22.0839 14.0326 22.0164 13.716C21.9492 13.3996 22.1512 13.0884 22.4677 13.0211L23.5702 12.7866C24.2583 12.64 24.9655 12.917 25.3715 13.4918L28.3929 17.7698C28.7698 18.3036 28.8127 18.9812 28.5439 19.5421L31.697 22.6951C32.2345 23.2327 32.3504 24.0345 32.0447 24.6861H37.7039C38.673 24.6861 39.4616 25.4746 39.4616 26.4438C39.4616 29.9476 35.1051 35.562 31.0008 37.4544V38.2423C31.0009 39.2116 30.2123 40 29.2432 40ZM12.2215 25.858V30.8209C12.2215 31.1474 12.4713 31.4247 12.7783 31.4392C12.9404 31.4472 13.0947 31.3897 13.2118 31.278C13.3289 31.1663 13.3933 31.0158 13.3933 30.854V27.6156C13.3933 26.9567 13.6121 26.3478 13.9806 25.8579H12.2215V25.858Z" fill="#156778"/>
</g>
<defs>
<clipPath id="clip0">
<rect width="40" height="40" fill="white" transform="translate(0.25)"/>
</clipPath>
</defs>
</svg>
