<svg id="Group_42373" data-name="Group 42373" xmlns="http://www.w3.org/2000/svg" width="20.21" height="20.5" viewBox="0 0 20.21 20.5">
  <rect id="Rectangle_19" data-name="Rectangle 19" width="20" height="20" transform="translate(0.21 0.5)" fill="none"/>
  <g id="chat">
    <g id="Group_38" data-name="Group 38">
      <path id="Path_2" data-name="Path 2" d="M13.14,0h.032a9.811,9.811,0,0,1,7.695,15.926L22.3,19.253a.533.533,0,0,1-.279.7.545.545,0,0,1-.305.038l-5.246-.922a9.454,9.454,0,0,1-3.269.568A9.82,9.82,0,0,1,13.14,0Zm3.365,7.856H13.612a.536.536,0,0,0,0,1.072h2.894a.536.536,0,0,0,0-1.072ZM9.861,11.607h6.645a.536.536,0,0,0,0-1.072H9.861a.536.536,0,1,0,0,1.072Z" transform="translate(-3.366)" fill="#ff6792"/>
    </g>
  </g>
</svg>
