<svg width="29" height="40" viewBox="0 0 29 40" fill="none" xmlns="http://www.w3.org/2000/svg">
<path d="M14.5004 40C13.3336 40 12.1677 39.6644 11.1542 38.994C8.25404 37.0755 6.17727 34.9906 4.80521 32.6201C3.46791 30.3096 2.75758 27.6712 2.64328 24.5781C-0.763991 20.1193 -0.799695 13.9043 2.5782 9.39555C3.52268 8.13497 4.67403 7.0776 6.00047 6.25281L9.33188 4.18128C9.84096 1.79528 11.9653 0 14.501 0C15.8352 0 17.1094 0.498841 18.0891 1.40465L23.3232 6.24438C23.5609 6.46407 23.5754 6.83478 23.3557 7.07245C23.1359 7.31003 22.7652 7.32456 22.5276 7.10487L17.2935 2.26514C16.531 1.56012 15.5393 1.1719 14.501 1.1719C12.233 1.1719 10.3879 3.01703 10.3879 5.28506C10.3879 6.0425 10.5953 6.78252 10.9877 7.42511C11.1563 7.70129 11.0691 8.06192 10.7929 8.2306C10.5167 8.3992 10.1561 8.31201 9.98752 8.03583C9.54204 7.30628 9.28196 6.4797 9.22704 5.62663L6.61939 7.24807C5.4171 7.99567 4.37301 8.9546 3.51619 10.0983C3.51463 10.1003 3.51315 10.1023 3.51166 10.1043C3.51072 10.1056 3.50955 10.1071 3.50861 10.1084C3.50807 10.1092 3.50768 10.1096 3.50713 10.1103C0.807297 13.7239 0.52229 18.5512 2.62984 22.4124C2.67516 20.2566 3.27814 17.7576 6.78495 15.3116C7.81731 14.5915 11.1145 12.4122 13.4316 10.8906C12.8592 10.519 12.257 10.1287 11.6237 9.71892C11.3519 9.54313 11.2742 9.18039 11.45 8.90866C11.6257 8.63686 11.9886 8.55912 12.2602 8.73499C17.3016 11.9966 20.3724 14.0249 22.217 15.3116C25.7239 17.7576 26.3269 20.2565 26.3722 22.4123C28.4819 18.5467 28.1938 13.7128 25.4858 10.0982C25.0683 9.54094 24.6162 9.03609 24.1422 8.5978C23.9047 8.3781 23.8901 8.00739 24.1098 7.76973C24.3295 7.53207 24.7002 7.51753 24.9379 7.73731C25.4638 8.22372 25.9638 8.78155 26.4238 9.39547C29.7981 13.8994 29.7643 20.1211 26.3585 24.5784C26.2115 28.4949 25.0962 31.7364 22.9614 34.4638C22.762 34.7186 22.3937 34.7636 22.1388 34.5641C21.884 34.3646 21.8391 33.9963 22.0386 33.7416C24.1977 30.983 25.2034 27.7838 25.2034 23.6733V22.7003C25.2034 20.6866 24.7604 18.5141 21.5468 16.2727C20.0938 15.2592 17.8694 13.7789 14.5047 11.5881C11.7676 13.3832 8.42327 15.5977 7.45543 16.2727C4.24184 18.5142 3.79886 20.6866 3.79886 22.7003V23.6733C3.79886 26.9492 4.45989 29.6836 5.81969 32.033C7.09886 34.2431 9.05539 36.2003 11.8009 38.0165C13.4171 39.0857 15.515 39.0997 17.1455 38.0524L17.2074 38.0126C18.5858 37.1007 19.6431 36.2738 20.5287 35.4143C20.761 35.1889 21.1319 35.1944 21.3573 35.4266C21.5827 35.6589 21.5771 36.0298 21.3449 36.2551C20.4058 37.1666 19.2945 38.0369 17.848 38.9939L17.7795 39.038C16.7804 39.6797 15.64 39.9999 14.5004 40V40ZM14.501 36.4208C13.5287 36.4208 12.6888 36.1722 11.858 35.6387C11.5857 35.4639 11.5067 35.1014 11.6816 34.829C11.8566 34.5567 12.219 34.4778 12.4913 34.6526C13.1334 35.065 13.7532 35.2489 14.501 35.2489C15.2487 35.2489 15.8686 35.065 16.5107 34.6527C16.7831 34.4779 17.1454 34.5569 17.3204 34.8291C17.4952 35.1014 17.4162 35.4639 17.144 35.6388C16.3131 36.1722 15.4733 36.4208 14.501 36.4208V36.4208ZM16.7402 33.4682H12.2608C11.3281 33.4682 10.4225 33.0732 9.77619 32.3844C9.55478 32.1484 9.5665 31.7776 9.80252 31.5562C10.0385 31.3348 10.4093 31.3465 10.6307 31.5825C11.0564 32.0361 11.6505 32.2963 12.2607 32.2963H16.7401C17.351 32.2963 17.9455 32.0361 18.3711 31.5825C18.5926 31.3466 18.9634 31.3349 19.1993 31.5562C19.4353 31.7776 19.4471 32.1485 19.2256 32.3845C18.5795 33.0732 17.6736 33.4682 16.7402 33.4682V33.4682ZM14.501 30.5413C12.7794 30.5413 11.9754 29.3003 11.942 29.2474C11.7692 28.9739 11.8509 28.6119 12.1244 28.439C12.3963 28.267 12.7559 28.3469 12.9299 28.6168C12.9571 28.6574 13.4494 29.3693 14.5011 29.3693C15.567 29.3693 16.0648 28.6288 16.0695 28.6213C16.2424 28.3477 16.6043 28.2661 16.8778 28.439C17.1514 28.6119 17.233 28.9738 17.0601 29.2474C17.0266 29.3004 16.2225 30.5413 14.501 30.5413V30.5413ZM19.9336 26.9448C17.5932 26.9448 15.6891 25.0407 15.6891 22.7003C15.6891 20.36 17.5933 18.4559 19.9336 18.4559C22.274 18.4559 24.1781 20.3599 24.1781 22.7003C24.1781 25.0408 22.2741 26.9448 19.9336 26.9448V26.9448ZM19.9336 19.6278C18.2394 19.6278 16.8611 21.0062 16.8611 22.7003C16.8611 24.3946 18.2394 25.7729 19.9336 25.7729C21.6278 25.7729 23.0062 24.3945 23.0062 22.7003C23.0062 21.0062 21.6279 19.6278 19.9336 19.6278V19.6278ZM9.06828 26.9448C6.72783 26.9448 4.8238 25.0407 4.8238 22.7003C4.8238 20.36 6.72783 18.4559 9.06828 18.4559C11.4087 18.4559 13.3128 20.3599 13.3128 22.7003C13.3128 25.0408 11.4087 26.9448 9.06828 26.9448V26.9448ZM9.06828 19.6278C7.37402 19.6278 5.99571 21.0062 5.99571 22.7003C5.99571 24.3946 7.37402 25.7729 9.06828 25.7729C10.7625 25.7729 12.1409 24.3945 12.1409 22.7003C12.1409 21.0062 10.7625 19.6278 9.06828 19.6278V19.6278ZM19.9336 24.601C19.61 24.601 19.3477 24.3387 19.3477 24.0151V23.7982C19.3477 23.4746 19.61 23.2122 19.9336 23.2122C20.2572 23.2122 20.5196 23.4746 20.5196 23.7982V24.0151C20.5196 24.3387 20.2573 24.601 19.9336 24.601ZM9.06828 24.601C8.74468 24.601 8.48233 24.3387 8.48233 24.0151V23.7982C8.48233 23.4746 8.74468 23.2122 9.06828 23.2122C9.39188 23.2122 9.65423 23.4746 9.65423 23.7982V24.0151C9.65423 24.3387 9.39188 24.601 9.06828 24.601ZM10.0196 22.7375C9.81705 22.7375 9.62017 22.6325 9.51165 22.4445C9.34977 22.1642 9.44579 21.8059 9.72603 21.6441L9.91377 21.5356C10.1939 21.3738 10.5524 21.4697 10.7143 21.75C10.8761 22.0302 10.7801 22.3886 10.4999 22.5504L10.3121 22.6589C10.2198 22.7121 10.119 22.7375 10.0196 22.7375V22.7375ZM20.8849 22.7375C20.6824 22.7375 20.4854 22.6325 20.3769 22.4445C20.2151 22.1642 20.3111 21.8059 20.5914 21.6441L20.7792 21.5356C21.0594 21.3739 21.4178 21.4698 21.5796 21.7501C21.7414 22.0303 21.6454 22.3887 21.3651 22.5505L21.1773 22.6589C21.0851 22.7121 20.9844 22.7375 20.8849 22.7375ZM18.9824 22.7375C18.883 22.7375 18.7822 22.7122 18.6899 22.6589L18.5021 22.5505C18.2219 22.3887 18.1258 22.0303 18.2877 21.7501C18.4495 21.4698 18.8077 21.3737 19.0881 21.5356L19.2759 21.6441C19.5561 21.8059 19.6521 22.1642 19.4903 22.4445C19.3818 22.6325 19.1849 22.7375 18.9824 22.7375ZM8.11701 22.7375C8.01763 22.7375 7.91685 22.7122 7.82458 22.6589L7.63676 22.5505C7.35652 22.3887 7.2605 22.0303 7.4223 21.7501C7.5841 21.4698 7.9424 21.3737 8.22272 21.5356L8.41053 21.6441C8.69077 21.8059 8.78679 22.1642 8.62499 22.4445C8.51647 22.6325 8.31951 22.7375 8.11701 22.7375Z" fill="#156778"/>
</svg>
