<svg width="21" height="20" viewBox="0 0 21 20" fill="none" xmlns="http://www.w3.org/2000/svg">
<path d="M18.6713 8.36792H18V8.33333H10.5V11.6667H15.2096C14.5225 13.6071 12.6763 15 10.5 15C7.73877 15 5.50002 12.7613 5.50002 10C5.50002 7.23875 7.73877 5 10.5 5C11.7746 5 12.9342 5.48083 13.8171 6.26625L16.1742 3.90917C14.6859 2.52208 12.695 1.66667 10.5 1.66667C5.89794 1.66667 2.16669 5.39792 2.16669 10C2.16669 14.6021 5.89794 18.3333 10.5 18.3333C15.1021 18.3333 18.8334 14.6021 18.8334 10C18.8334 9.44125 18.7759 8.89583 18.6713 8.36792Z" fill="#FFC107"/>
<path d="M3.1275 6.12125L5.86542 8.12917C6.60625 6.295 8.40042 5 10.5 5C11.7746 5 12.9342 5.48083 13.8171 6.26625L16.1742 3.90917C14.6858 2.52208 12.695 1.66667 10.5 1.66667C7.29917 1.66667 4.52334 3.47375 3.1275 6.12125Z" fill="#FF3D00"/>
<path d="M10.5 18.3333C12.6525 18.3333 14.6083 17.5096 16.0871 16.17L13.5079 13.9875C12.6431 14.6452 11.5864 15.0009 10.5 15C8.33249 15 6.49207 13.6179 5.79874 11.6892L3.08124 13.7829C4.4604 16.4817 7.26124 18.3333 10.5 18.3333Z" fill="#4CAF50"/>
<path d="M18.6713 8.36792H18V8.33333H10.5V11.6667H15.2096C14.8809 12.5902 14.2889 13.3972 13.5067 13.9879L13.5079 13.9871L16.0871 16.1696C15.9046 16.3354 18.8333 14.1667 18.8333 10C18.8333 9.44125 18.7758 8.89583 18.6713 8.36792Z" fill="#1976D2"/>
</svg>
