<svg width="36" height="40" viewBox="0 0 36 40" fill="none" xmlns="http://www.w3.org/2000/svg">
<path d="M25.6747 40C25.4695 40 25.2743 39.8917 25.1677 39.7076C25.0346 39.4779 25.0728 39.1874 25.2605 38.9996C28.4208 35.8393 29.8927 32.0867 29.8927 27.1898C29.8927 26.8661 30.1551 26.6039 30.4787 26.6039C30.8023 26.6039 31.0646 26.8661 31.0646 27.1898C31.0646 31.5128 29.9206 35.1174 27.578 38.1424C30.0972 37.0722 31.977 35.4231 33.0749 33.3002C34.4185 30.7021 34.6068 27.3993 33.6194 23.7489L29.9963 10.3544C29.9556 10.2039 29.9766 10.0434 30.0545 9.90834C30.1325 9.77326 30.2611 9.67498 30.4118 9.63498C30.7245 9.55201 31.047 9.73803 31.1299 10.0508C31.1334 10.0642 31.1364 10.0776 31.1391 10.0911L34.7506 23.4429C35.8159 27.381 35.5963 30.9757 34.1159 33.8384C32.5821 36.8042 29.7162 38.9278 25.8278 39.9795C25.7769 39.9934 25.7256 40 25.6747 40V40ZM10.3253 40C10.2745 40 10.2231 39.9934 10.1722 39.9796C6.28389 38.9278 3.41796 36.8042 1.88421 33.8385C0.403743 30.9757 0.184212 27.381 1.24944 23.443L4.85655 10.1075C4.85975 10.0876 4.86397 10.0676 4.86928 10.0479C6.46561 4.13187 11.8651 0 18 0C20.6339 0 23.1892 0.754217 25.3896 2.18109C27.5325 3.5707 29.2371 5.52468 30.319 7.8317C30.4564 8.12467 30.3302 8.47365 30.0373 8.611C29.7442 8.74873 29.3954 8.6224 29.258 8.32936C28.2692 6.22077 26.711 4.43468 24.752 3.16445C22.742 1.86086 20.4071 1.17187 18 1.17187C12.4134 1.17187 7.49428 4.9203 6.01631 10.2955C6.01311 10.3152 6.00889 10.3349 6.00365 10.3544L2.38061 23.7489C1.39319 27.3993 1.58148 30.7021 2.92507 33.3002C4.02295 35.4232 5.90279 37.0722 8.42201 38.1424C6.07936 35.1173 4.93538 31.5128 4.93538 27.1898C4.93538 26.8661 5.19772 26.6039 5.52131 26.6039C5.8449 26.6039 6.10725 26.8661 6.10725 27.1898C6.10725 32.0867 7.5792 35.8393 10.7395 38.9996C10.9272 39.1873 10.9653 39.4778 10.8323 39.7076C10.7257 39.8917 10.5305 40 10.3253 40V40ZM22.1592 39.9999C22.0092 39.9999 21.8592 39.9427 21.7449 39.8284C21.516 39.5995 21.516 39.2285 21.7449 38.9997C23.5306 37.214 24.7772 35.2393 25.5239 32.9757C24.0027 32.3556 22.1471 31.9379 20.1274 31.7631C19.805 31.7353 19.5662 31.4513 19.5941 31.1289C19.622 30.8066 19.9059 30.5675 20.2284 30.5957C22.3127 30.776 24.2425 31.2055 25.8498 31.8438C26.2042 30.4122 26.3771 28.8682 26.3771 27.19V12.6412C26.3771 11.2311 26.0992 9.86436 25.5693 8.60334C24.9383 11.6153 22.8742 14.1674 19.9646 15.3807L9.62294 19.6932V24.2455C9.62294 24.5692 9.3606 24.8314 9.03701 24.8314C8.71341 24.8314 8.45107 24.5692 8.45107 24.2455V19.3161C8.45091 19.3074 8.45091 19.2985 8.45107 19.2897V12.6411C8.45107 9.54631 9.65466 6.63827 11.8402 4.45273C12.069 4.22398 12.44 4.22398 12.6688 4.45273C12.8976 4.68163 12.8976 5.05257 12.6688 5.2814C10.7047 7.24553 9.62294 9.85928 9.62294 12.6411V18.4234L12.4665 17.2376C14.6656 16.3172 16.5131 14.7964 17.8101 12.839C19.1025 10.8887 19.7855 8.60256 19.7855 6.22788C19.7855 5.90421 20.0478 5.64194 20.3714 5.64194C20.695 5.64194 20.9574 5.90421 20.9574 6.22788C20.9574 8.83365 20.2069 11.3435 18.7871 13.4863C18.3953 14.0775 17.9582 14.6322 17.4798 15.1472L19.5135 14.2991C22.5478 13.0337 24.5323 10.1051 24.5983 6.81311C24.2294 6.26913 23.8061 5.75632 23.3313 5.28147C23.1024 5.05257 23.1024 4.68163 23.3313 4.4528C23.5601 4.22405 23.9311 4.22405 24.1599 4.4528C26.3454 6.63835 27.549 9.54631 27.549 12.6412V27.1898C27.549 32.3462 25.9215 36.4803 22.5735 39.8283C22.4591 39.9427 22.3091 39.9999 22.1592 39.9999V39.9999ZM13.8408 39.9999C13.6909 39.9999 13.5409 39.9427 13.4265 39.8284C10.0786 36.4804 8.45099 32.3463 8.45099 27.1899C8.45099 26.8662 8.71334 26.6039 9.03693 26.6039C9.36052 26.6039 9.62287 26.8662 9.62287 27.1899C9.62287 28.8681 9.79576 30.412 10.1502 31.8436C12.3325 30.9763 15.0872 30.5017 17.9848 30.5H17.9851C18.3086 30.5 18.5709 30.762 18.5711 31.0856C18.5712 31.4092 18.309 31.6717 17.9854 31.6719C15.1832 31.6735 12.537 32.1347 10.476 32.9756C11.2226 35.2393 12.4693 37.214 14.255 38.9997C14.4839 39.2286 14.4839 39.5995 14.255 39.8284C14.1407 39.9427 13.9908 39.9999 13.8408 39.9999V39.9999Z" fill="#156778"/>
</svg>
