<svg xmlns="http://www.w3.org/2000/svg" width="25" height="25" viewBox="0 0 25 25">
  <g id="home_icon" data-name="home icon" transform="translate(0 -26.353)">
    <g id="Group_7" data-name="Group 7" transform="translate(0 26.353)">
      <path id="Path_29" data-name="Path 29" d="M.864,41.241H2.9v9.134a.933.933,0,0,0,.873.979H9.736a.933.933,0,0,0,.873-.979V43.688h3.636v6.687a.933.933,0,0,0,.873.979h5.673a.933.933,0,0,0,.873-.979V41.241h2.473a.879.879,0,0,0,.8-.6,1.072,1.072,0,0,0-.189-1.06L13.373,26.643a.8.8,0,0,0-1.222-.016L.267,39.561a1.066,1.066,0,0,0-.2,1.076A.857.857,0,0,0,.864,41.241ZM12.732,28.714l9.309,10.569H20.79a.933.933,0,0,0-.873.979V49.4H15.991V42.709a.933.933,0,0,0-.873-.979H9.736a.933.933,0,0,0-.873.979V49.4H4.645V40.262a.933.933,0,0,0-.873-.979H3.016Z" transform="translate(0 -26.353)" fill="#8e485c"/>
    </g>
  </g>
</svg>
