<svg width="20" height="20" viewBox="0 0 20 20" fill="none" xmlns="http://www.w3.org/2000/svg">
<path d="M7.43483 18.7733V15.7156C7.43483 14.9351 8.07222 14.3023 8.85848 14.3023H11.7327C12.1102 14.3023 12.4723 14.4512 12.7393 14.7163C13.0063 14.9813 13.1563 15.3408 13.1563 15.7156V18.7733C13.1539 19.0978 13.2821 19.4099 13.5124 19.6402C13.7427 19.8705 14.0561 20 14.383 20H16.3439C17.2597 20.0023 18.1388 19.6428 18.7872 19.0008C19.4356 18.3588 19.8001 17.487 19.8 16.5778V7.86686C19.8 7.13246 19.4721 6.43584 18.9047 5.96467L12.2341 0.675869C11.0737 -0.251438 9.41116 -0.221498 8.28544 0.746979L1.76706 5.96467C1.17279 6.42195 0.817601 7.12064 0.800049 7.86686V16.5689C0.800049 18.4639 2.34743 20 4.25622 20H6.17234C6.85128 20 7.40305 19.4562 7.40797 18.7822L7.43483 18.7733Z" fill="#ADB3BC"/>
</svg>
