<svg xmlns="http://www.w3.org/2000/svg" width="25.099" height="28.476" viewBox="0 0 25.099 28.476">
  <g id="location" transform="translate(-13.151 -6.306)">
    <path id="Path_9526" data-name="Path 9526" d="M40.865,6.306a7.58,7.58,0,0,0-7.58,7.58c-.044,7.232,7.58,16.2,7.58,16.2s7.624-8.968,7.58-16.2a7.58,7.58,0,0,0-7.58-7.58Zm0,10.8a3.215,3.215,0,1,1,3.215-3.215A3.215,3.215,0,0,1,40.865,17.1Z" transform="translate(-15.165)" fill="#9be7e0"/>
    <path id="Path_9527" data-name="Path 9527" d="M28.976,84.289A45.142,45.142,0,0,1,25.7,88.823a45.142,45.142,0,0,1-3.276-4.535c-5.342.539-9.273,2.365-9.273,4.535,0,2.594,5.619,4.7,12.549,4.7a28.552,28.552,0,0,0,7.58-.953c2.987-.835,4.97-2.2,4.97-3.743C38.249,86.654,34.318,84.828,28.976,84.289Z" transform="translate(0 -58.738)" fill="#ffd800"/>
    <g id="Group_7252" data-name="Group 7252" transform="translate(17.18 30.569)">
      <path id="Path_9528" data-name="Path 9528" d="M34.412,106.762a.421.421,0,0,1-.055,0,12.593,12.593,0,0,1-4.673-1.336.432.432,0,1,1,.452-.736,11.8,11.8,0,0,0,4.331,1.215.432.432,0,0,1-.054.86Z" transform="translate(-29.477 -104.622)" fill="#9be7e0"/>
      <path id="Path_9529" data-name="Path 9529" d="M59.229,111.477c-.382,0-.768-.007-1.147-.021a.432.432,0,1,1,.032-.864c.612.022,1.239.025,1.841.012a.427.427,0,0,1,.442.422.432.432,0,0,1-.422.442Q59.605,111.477,59.229,111.477Z" transform="translate(-50.709 -109.119)" fill="#9be7e0"/>
    </g>
  </g>
</svg>
