<svg width="41" height="40" viewBox="0 0 41 40" fill="none" xmlns="http://www.w3.org/2000/svg">
<g clip-path="url(#clip0)">
<path d="M34.0618 37.8818C33.6117 37.8818 33.1616 37.7105 32.819 37.3679L21.0975 25.6464C20.8761 25.425 20.7543 25.1307 20.7543 24.8178C20.7543 24.5048 20.8761 24.2105 21.0975 23.9892L16.6804 19.5721C16.5828 19.4745 16.4897 19.3736 16.4007 19.2696C10.5549 18.6371 5.43137 14.949 2.96387 9.59504C2.13114 9.16652 1.36028 8.61191 0.675982 7.94129C0.44481 7.7148 0.44106 7.34387 0.667623 7.1127C0.894185 6.88152 1.2652 6.87785 1.49614 7.10434C2.27778 7.87027 3.18879 8.4634 4.18098 8.86434L9.05942 3.9877C10.2655 2.78207 11.8689 2.11816 13.5742 2.11816H20.5305C20.8542 2.11816 21.1165 2.38051 21.1165 2.7041C21.1165 3.0277 20.8542 3.29004 20.5305 3.29004H13.5742C12.1818 3.29004 10.8727 3.83215 9.88794 4.81652L5.44278 9.25996C6.05333 9.39902 6.68458 9.47051 7.32715 9.47051H7.332C9.56255 9.46926 11.6528 8.82418 13.2175 7.6541C13.4255 7.49855 13.7113 7.49848 13.9193 7.6541C16.2931 9.42918 20.1554 9.42918 22.5292 7.6541C22.7372 7.49855 23.0229 7.49855 23.2309 7.6541C24.7974 8.82543 26.8893 9.47051 29.1212 9.47051C29.7638 9.47051 30.3951 9.39902 31.0057 9.25996L26.5605 4.81652C25.5758 3.83215 24.2667 3.29004 22.8743 3.29004C22.5506 3.29004 22.2883 3.0277 22.2883 2.7041C22.2883 2.38051 22.5506 2.11816 22.8743 2.11816C24.5796 2.11816 26.183 2.78215 27.389 3.9877L32.2675 8.86434C33.2597 8.46348 34.1708 7.87027 34.9522 7.10441C35.1833 6.87793 35.5543 6.88152 35.7808 7.11277C36.0073 7.34387 36.0036 7.71488 35.7725 7.94137C35.0882 8.61199 34.3175 9.16652 33.4847 9.59504C32.0771 12.6508 29.8129 15.1878 26.927 16.9396C26.6505 17.1075 26.2901 17.0193 26.1221 16.7427C25.9542 16.4661 26.0423 16.1057 26.319 15.9378C28.6329 14.5332 30.5172 12.5863 31.832 10.2556C30.9639 10.5104 30.0528 10.6424 29.1212 10.6424C26.7978 10.6424 24.5986 10.005 22.8772 8.8402C21.5822 9.68832 19.9477 10.1514 18.2242 10.1514C16.5007 10.1514 14.8663 9.68832 13.5711 8.8402C11.8516 10.0037 9.65434 10.6411 7.33255 10.6424C7.3309 10.6424 7.32872 10.6424 7.32708 10.6424C6.39598 10.6424 5.48567 10.5106 4.61786 10.2561C6.92301 14.3304 10.9576 17.1782 15.5699 17.9707C14.7267 16.1617 14.8411 14.0629 15.7605 13.1433C16.9747 11.9291 20.2451 12.1189 22.1894 14.0632L26.6065 18.4802C27.0635 18.0234 27.807 18.0234 28.2637 18.4802L30.2386 20.455C30.4674 20.6839 30.4674 21.0549 30.2386 21.2836C30.0097 21.5124 29.6387 21.5125 29.4099 21.2836L27.4351 19.3089L21.9261 24.8179L27.0185 29.9102L32.5275 24.4012L30.9725 22.8461C30.7436 22.6173 30.7436 22.2463 30.9725 22.0175C31.2015 21.7886 31.5724 21.7887 31.8011 22.0175L39.9852 30.2016C40.3172 30.5336 40.5 30.975 40.5 31.4446C40.5 31.9141 40.3172 32.3555 39.9851 32.6875L35.3049 37.3679C34.9622 37.7105 34.5121 37.8818 34.0618 37.8818V37.8818ZM29.5043 32.3961L33.6475 36.5393C33.8761 36.7678 34.2478 36.7675 34.4762 36.5393L39.1565 31.8589C39.2672 31.7482 39.3281 31.6011 39.3281 31.4446C39.3281 31.2882 39.2672 31.1411 39.1565 31.0304L35.0133 26.8871L29.5043 32.3961ZM27.8471 30.7387L28.6757 31.5674L34.1847 26.0583L33.3561 25.2297L27.8471 30.7387ZM18.0408 13.5444C17.3997 13.5444 16.8645 13.6965 16.5892 13.9719C15.8636 14.6975 15.9933 17.2279 17.509 18.7435L21.926 23.1605L25.7778 19.3088L21.3608 14.8918C20.4204 13.9513 19.089 13.5444 18.0408 13.5444V13.5444Z" fill="#156778"/>
</g>
<defs>
<clipPath id="clip0">
<rect width="40" height="40" fill="white" transform="translate(0.5)"/>
</clipPath>
</defs>
</svg>
