<svg width="41" height="40" viewBox="0 0 41 40" fill="none" xmlns="http://www.w3.org/2000/svg">
<path d="M32.2858 40.0005C31.9937 40.0005 31.7408 39.7822 31.7049 39.4849L31.4261 37.1813C31.3872 36.86 31.6161 36.568 31.9373 36.5292C32.2577 36.4905 32.5506 36.7192 32.5894 37.0404L32.8682 39.344C32.9072 39.6653 32.6782 39.9573 32.357 39.9961C32.3332 39.999 32.3093 40.0005 32.2858 40.0005ZM8.21408 40.0005C8.19056 40.0005 8.16689 39.999 8.14291 39.9961C7.82166 39.9573 7.59275 39.6653 7.63166 39.344L8.51837 32.0182L6.6787 23.418C6.61104 23.1015 6.81268 22.7901 7.12909 22.7225C7.44541 22.6548 7.75697 22.8563 7.82463 23.1729L9.68485 31.8689C9.69844 31.9324 9.70133 31.9975 9.69352 32.062L8.79501 39.485C8.75907 39.7822 8.50626 40.0005 8.21408 40.0005ZM20.2496 37.6969C20.1663 37.6969 20.0817 37.679 20.0012 37.6414L18.7627 37.0606C18.4696 36.9232 18.3435 36.5743 18.4809 36.2813C18.6183 35.9882 18.9671 35.862 19.2602 35.9995L20.4987 36.5803C20.7917 36.7177 20.9178 37.0666 20.7805 37.3596C20.6808 37.5722 20.4698 37.6969 20.2496 37.6969V37.6969ZM31.7387 35.4808C31.4466 35.4808 31.1937 35.2626 31.1578 34.9652L30.8064 32.0618C30.7986 31.9974 30.8015 31.9322 30.8151 31.8688L34.9819 12.3894C35.0202 12.2102 35.1402 12.0592 35.3061 11.9814L39.4151 10.0548C39.708 9.9175 40.0569 10.0436 40.1944 10.3366C40.3317 10.6296 40.2056 10.9785 39.9126 11.1159L36.0671 12.919L31.9816 32.0182L32.3212 34.8244C32.3601 35.1457 32.1312 35.4377 31.81 35.4765C31.7861 35.4793 31.7622 35.4808 31.7387 35.4808V35.4808ZM20.25 35.0995C19.9263 35.0995 19.6641 34.8372 19.6641 34.5136V34.202L18.7627 33.7794C18.4697 33.642 18.3436 33.2931 18.4809 33.0001C18.6184 32.707 18.9672 32.5809 19.2602 32.7184L19.7061 32.9274C19.7926 32.7119 20.0036 32.5597 20.2501 32.5597C20.5737 32.5597 20.836 32.8219 20.836 33.1456V34.5137C20.8359 34.8372 20.5736 35.0995 20.25 35.0995ZM20.2496 31.1345C20.1663 31.1345 20.0817 31.1166 20.0012 31.0789L18.7627 30.4981C18.5503 30.3986 18.4256 30.1879 18.4253 29.9681C18.4252 29.8845 18.4431 29.7995 18.4809 29.7189C18.6183 29.4258 18.9671 29.2997 19.2602 29.4371L20.4987 30.0179C20.711 30.1174 20.8357 30.3281 20.836 30.548C20.8361 30.6316 20.8182 30.7165 20.7805 30.7971C20.6808 31.0098 20.4698 31.1345 20.2496 31.1345V31.1345ZM20.2496 27.8532C20.1663 27.8532 20.0817 27.8353 20.0012 27.7977L18.7627 27.2169C18.4696 27.0795 18.3435 26.7306 18.4809 26.4376C18.6183 26.1445 18.9671 26.0185 19.2602 26.1558L20.4987 26.7366C20.7917 26.874 20.9178 27.2229 20.7805 27.5159C20.6808 27.7285 20.4698 27.8532 20.2496 27.8532V27.8532ZM20.2496 24.572C20.1663 24.572 20.0817 24.5541 20.0012 24.5165L18.7627 23.9357C18.4696 23.7983 18.3435 23.4494 18.4809 23.1564C18.6183 22.8633 18.9671 22.7373 19.2602 22.8746L20.4987 23.4554C20.7917 23.5928 20.9178 23.9417 20.7805 24.2347C20.6808 24.4473 20.4698 24.572 20.2496 24.572V24.572ZM24.374 21.5228C24.1538 21.5228 23.9428 21.398 23.8431 21.1855C23.7057 20.8925 23.8318 20.5436 24.1249 20.4062C28.2474 18.4733 30.4814 16.3178 30.4814 10.4732C30.4814 10.2459 30.6129 10.0391 30.8186 9.94265L32.8314 8.99891C33.1242 8.86157 33.4732 8.98758 33.6107 9.28071C33.748 9.57367 33.6219 9.92258 33.3289 10.06L31.6504 10.8469C31.6051 13.6897 31.0367 15.8071 29.8716 17.4876C28.793 19.0434 27.1742 20.2708 24.6224 21.4672C24.5419 21.5049 24.4573 21.5228 24.374 21.5228ZM16.126 21.5228C16.0427 21.5228 15.9581 21.5049 15.8776 21.4673C13.3258 20.2709 11.7069 19.0435 10.6284 17.4877C9.99812 16.5785 9.54242 15.5416 9.24977 14.3311L7.66861 15.0725C7.37565 15.2099 7.02682 15.0837 6.88932 14.7907C6.75198 14.4977 6.87807 14.1488 7.17112 14.0114L9.02259 13.1433C8.9979 12.9726 8.97571 12.7988 8.95626 12.6217H6.89713C6.57346 12.6217 6.3112 12.3594 6.3112 12.0358C6.3112 11.7121 6.57346 11.4498 6.89713 11.4498H8.86759C8.85884 11.2527 8.8529 11.0516 8.8497 10.847L7.17119 10.0601C6.87815 9.92266 6.75206 9.57375 6.8894 9.28078C7.0269 8.98766 7.37572 8.86165 7.66869 8.99899L9.68149 9.94273C9.88727 10.0392 10.0187 10.246 10.0187 10.4733C10.0187 16.3179 12.2527 18.4733 16.3752 20.4063C16.6682 20.5437 16.7943 20.8926 16.657 21.1855C16.5571 21.398 16.3461 21.5228 16.126 21.5228V21.5228ZM6.74651 21.5228C6.47604 21.5228 6.233 21.3344 6.17417 21.0593L4.43286 12.919L0.587342 11.116C0.294298 10.9786 0.168205 10.6297 0.305548 10.3367C0.442968 10.0436 0.791794 9.91758 1.08484 10.0549L5.19379 11.9815C5.35972 12.0593 5.47972 12.2103 5.518 12.3895L7.3201 20.8142C7.38776 21.1306 7.18612 21.442 6.86963 21.5097C6.82838 21.5185 6.78713 21.5228 6.74651 21.5228ZM20.2496 21.2908C20.1663 21.2908 20.0817 21.2729 20.0012 21.2352L18.7627 20.6545C18.4696 20.517 18.3435 20.1681 18.4809 19.8752C18.6183 19.582 18.9671 19.4559 19.2602 19.5934L20.4987 20.1741C20.7917 20.3116 20.9178 20.6605 20.7805 20.9534C20.6808 21.1661 20.4698 21.2908 20.2496 21.2908V21.2908ZM20.25 19.0194C19.9263 19.0194 19.6641 18.7571 19.6641 18.4335V17.6396L18.7627 17.2171C18.4697 17.0796 18.3436 16.7307 18.4809 16.4378C18.6184 16.1446 18.9672 16.0186 19.2602 16.156L19.6641 16.3453V14.2022L18.7628 13.7796C18.4698 13.6422 18.3437 13.2933 18.481 13.0003C18.6184 12.7072 18.9673 12.5811 19.2603 12.7185L19.6642 12.9079V12.0358C19.6642 11.7121 19.9265 11.4498 20.2501 11.4498C20.5738 11.4498 20.8361 11.7121 20.8361 12.0358V18.4335C20.8359 18.7571 20.5736 19.0194 20.25 19.0194V19.0194ZM17.4371 18.8689C17.3538 18.8689 17.2692 18.851 17.1887 18.8134L15.9502 18.2326C15.6571 18.0952 15.531 17.7463 15.6684 17.4533C15.8058 17.1602 16.1546 17.0341 16.4477 17.1715L17.6863 17.7523C17.9792 17.8897 18.1053 18.2386 17.968 18.5316C17.8684 18.7442 17.6573 18.8689 17.4371 18.8689V18.8689ZM14.6246 16.4471C14.5414 16.4471 14.4568 16.4292 14.3762 16.3915L13.1377 15.8107C12.8447 15.6733 12.7186 15.3244 12.8559 15.0314C12.9933 14.7383 13.3422 14.6122 13.6352 14.7497L14.8738 15.3304C15.1668 15.4679 15.2928 15.8168 15.1555 16.1097C15.0559 16.3224 14.8448 16.4471 14.6246 16.4471V16.4471ZM17.4371 15.4314C17.3538 15.4314 17.2692 15.4136 17.1887 15.3759L15.9502 14.7951C15.6571 14.6577 15.531 14.3088 15.6684 14.0158C15.8058 13.7227 16.1546 13.5967 16.4477 13.734L17.6863 14.3148C17.9792 14.4522 18.1053 14.8011 17.968 15.0941C17.8684 15.3068 17.6573 15.4314 17.4371 15.4314V15.4314ZM14.6246 13.0096C14.5414 13.0096 14.4568 12.9917 14.3762 12.954L13.1377 12.3733C12.8447 12.2358 12.7186 11.8869 12.8559 11.594C12.9933 11.3008 13.3422 11.1747 13.6352 11.3122L14.8738 11.893C15.1668 12.0304 15.2928 12.3793 15.1555 12.6722C15.0559 12.8849 14.8448 13.0096 14.6246 13.0096V13.0096ZM17.4371 11.994C17.3538 11.994 17.2692 11.9761 17.1887 11.9384L15.9502 11.3576C15.6571 11.2202 15.531 10.8713 15.6684 10.5784C15.8058 10.2852 16.1546 10.1591 16.4477 10.2966L17.6863 10.8773C17.9792 11.0148 18.1053 11.3637 17.968 11.6566C17.8684 11.8693 17.6573 11.994 17.4371 11.994V11.994ZM23.0629 8.95649C22.8426 8.95649 22.6316 8.83172 22.5319 8.61915C22.3946 8.32618 22.5207 7.97728 22.8137 7.83986L25.3053 6.67166C24.9659 6.22557 24.7752 5.67487 24.7752 5.09988V0.586626C24.7752 0.262956 25.0375 0.000692316 25.3611 0.000692316C25.6848 0.000692316 25.9471 0.262956 25.9471 0.586626V5.09995C25.9471 5.3562 26.0161 5.60362 26.1419 5.81862C27.1839 3.69129 29.1117 2.11474 31.4414 1.52685C31.7553 1.44764 32.0736 1.63787 32.1529 1.95169C32.232 2.26552 32.0418 2.58403 31.728 2.66317C29.4887 3.22817 27.6836 4.86027 26.8994 7.02908C26.8466 7.17517 26.7378 7.29439 26.5971 7.36033L23.3111 8.90102C23.2307 8.93868 23.1461 8.95649 23.0629 8.95649V8.95649ZM17.4371 8.95649C17.3538 8.95649 17.2692 8.9386 17.1888 8.90094L13.9027 7.36025C13.762 7.29424 13.6533 7.1751 13.6004 7.029C12.3008 3.43489 8.31962 1.56842 4.72551 2.86778C4.57926 2.92059 4.41809 2.91325 4.27755 2.84731L0.587342 1.11717C0.294298 0.979748 0.168205 0.630844 0.305548 0.337877C0.442968 0.0447545 0.791794 -0.0813384 1.08484 0.0560826L4.56004 1.68552C8.41923 0.41983 12.6008 2.22693 14.3582 5.81831C14.4839 5.60339 14.5529 5.35605 14.5529 5.09988V0.586626C14.5529 0.262956 14.8152 0.000692316 15.1389 0.000692316C15.4625 0.000692316 15.7248 0.262956 15.7248 0.586626V5.09995C15.7248 5.67495 15.5341 6.22565 15.1946 6.67174L17.6863 7.83993C17.9793 7.97736 18.1054 8.32626 17.9681 8.61923C17.8684 8.8318 17.6573 8.95649 17.4371 8.95649V8.95649ZM35.9737 2.90278C35.9064 2.90278 35.8389 2.89122 35.7744 2.86786C35.1564 2.64442 34.5141 2.50966 33.8653 2.46739C33.5423 2.4463 33.2975 2.16747 33.3186 1.84459C33.3397 1.52154 33.6207 1.2767 33.9414 1.29795C34.6191 1.34209 35.2902 1.47232 35.9399 1.68552L39.4151 0.0560826C39.7081 -0.0813384 40.0569 0.0448326 40.1944 0.337877C40.3318 0.630844 40.2057 0.979748 39.9126 1.11717L36.2224 2.84739C36.1438 2.88427 36.0588 2.90278 35.9737 2.90278Z" fill="#156778"/>
</svg>
