<svg width="41" height="36" viewBox="0 0 41 36" fill="none" xmlns="http://www.w3.org/2000/svg">
<path d="M7.67105 35.8393H1.33617C1.01237 35.8393 0.75 35.5769 0.75 35.2531C0.75 34.9293 1.01237 34.6669 1.33617 34.6669H7.67105C11.5181 34.6669 14.4334 34.2122 16.5835 33.2768C18.3949 32.4888 19.712 31.3622 20.6682 29.7696H13.6963C11.4538 29.7696 9.70499 27.8649 9.4742 25.263H1.33617C1.01237 25.263 0.75 25.0006 0.75 24.6768C0.75 24.353 1.01237 24.0907 1.33617 24.0907H10.0345C12.8782 24.0907 15.3688 23.089 17.237 21.1939L21.5614 16.7974L19.0104 14.2291C18.8739 14.0917 18.8141 13.8956 18.8507 13.7053C18.8873 13.515 19.0156 13.3552 19.1934 13.2781C19.7409 13.0411 20.2595 12.8187 20.7535 12.6067C23.0159 11.6362 24.803 10.8696 26.4506 9.9393C26.7325 9.78041 27.0902 9.87966 27.2493 10.1616C27.4084 10.4435 27.309 10.801 27.027 10.9603C25.3239 11.9219 23.511 12.6995 21.2158 13.6842C20.9665 13.7911 20.711 13.9007 20.4487 14.0135L26.8684 20.4768C29.6143 14.1658 31.1151 11.2076 36.1084 6.21429L39.2844 3.03833C39.4853 2.83739 39.5918 2.55931 39.5764 2.27529C39.5609 1.98752 39.4269 1.7282 39.1992 1.545C38.8091 1.23128 38.2103 1.2788 37.8359 1.65325L34.66 4.8292C32.4943 6.99484 30.7791 8.48387 29.0984 9.65731C28.8328 9.84278 28.4674 9.77775 28.2822 9.51233C28.0969 9.24691 28.1618 8.88145 28.4272 8.69614C30.0494 7.56358 31.7159 6.11534 33.8309 4.00028L37.0067 0.824086C37.8116 0.0193884 39.07 -0.0633793 39.9337 0.63143C40.4172 1.02026 40.7136 1.59635 40.7468 2.21191C40.7801 2.82786 40.5492 3.43122 40.1133 3.86718L36.9371 7.04322C31.8912 12.0892 30.5093 15.017 27.5997 21.7362C27.5224 21.9146 27.3616 22.0432 27.1705 22.0793C26.9796 22.1151 26.7828 22.0544 26.6458 21.9164L24.0397 19.2926C23.3497 19.9918 21.6783 21.6821 19.7047 23.6558C19.555 23.8055 19.41 23.9505 19.2697 24.0907H23.9004C24.6375 24.0907 25.2373 24.6897 25.2376 25.426C25.2379 26.5128 24.9494 27.5352 24.4253 28.3052C23.8437 29.1593 23.017 29.6544 22.019 29.7518C19.8189 34.0141 15.4986 35.8393 7.67105 35.8393V35.8393ZM10.6528 25.2478C10.8462 26.9516 11.9068 28.5972 13.6962 28.5972H21.6352C21.6431 28.597 21.6509 28.597 21.6588 28.5972C22.4237 28.594 23.0283 28.2737 23.4563 27.6452C23.8436 27.0764 24.0656 26.2676 24.0653 25.4263C24.0653 25.3362 23.9913 25.2629 23.9004 25.2629H18.0966C16.625 26.7327 15.9372 27.4166 15.9283 27.4254C15.6988 27.6537 15.3276 27.6526 15.0994 27.423C14.8711 27.1934 14.8722 26.8222 15.1018 26.5941C15.1128 26.5831 16.1658 25.5361 18.4612 23.2412L17.6457 22.4255C15.7676 24.1291 13.3227 25.1158 10.6528 25.2478V25.2478ZM18.48 21.6019L19.2902 22.4121C21.0869 20.6129 22.5783 19.1045 23.2136 18.4607L22.3876 17.629L18.48 21.6019Z" fill="#156778"/>
</svg>
