<svg width="40" height="34" viewBox="0 0 40 34" fill="none" xmlns="http://www.w3.org/2000/svg">
<path d="M29.7315 33.0938H10.2685C9.16047 33.0938 8.08266 32.6347 7.31117 31.8342C5.11281 29.5533 0 23.3893 0 15.4347C0 14.5826 0.427266 13.7977 1.14281 13.3352L3.125 12.0541V8.85742C3.125 7.88813 3.91359 7.09961 4.88281 7.09961H13.8241C15.71 4.95985 17.8563 4.00297 20.7531 4.00297C21.0768 4.00297 21.3391 4.26531 21.3391 4.58891C21.3391 4.9125 21.0768 5.17485 20.7531 5.17485C18.6057 5.17485 16.9304 5.77617 15.4659 7.09961H31.8831C31.2991 5.13414 29.5448 3.12555 27.5736 2.19922C26.3087 3.59274 24.8937 4.47289 23.26 4.88485C22.9463 4.96383 22.6277 4.77375 22.5486 4.46C22.4695 4.14625 22.6597 3.82774 22.9734 3.7486C24.5071 3.36188 25.7757 2.52477 26.9659 1.11438C27.128 0.922268 27.3946 0.854924 27.6284 0.947034C30.2065 1.96242 32.4807 4.54977 33.0962 7.09961H35.1172C36.0864 7.09961 36.875 7.88813 36.875 8.85742V12.0541L38.8572 13.3352C39.5723 13.7976 39.9996 14.5788 40 15.4252C40.0013 17.8205 39.5385 20.2509 38.6247 22.6491C38.5095 22.9514 38.1712 23.1033 37.8684 22.988C37.5661 22.8727 37.4143 22.5342 37.5295 22.2318C38.3165 20.1666 38.7491 18.0802 38.8182 16.0206H21.9803C21.6566 16.0206 21.3944 15.7583 21.3944 15.4347C21.3944 15.1111 21.6566 14.8488 21.9803 14.8488H38.6939C38.5897 14.637 38.4281 14.4532 38.2211 14.3195L36.1162 12.959H3.88383L1.77898 14.3195C1.57273 14.4527 1.41172 14.6364 1.30742 14.8488H19.6366C19.9602 14.8488 20.2225 15.1111 20.2225 15.4347C20.2225 15.7583 19.9602 16.0206 19.6366 16.0206H1.18172C1.42508 23.2666 6.11016 28.8994 8.15492 31.021C8.70672 31.5935 9.47703 31.9219 10.2685 31.9219H29.7315C30.5228 31.9219 31.292 31.5948 31.8419 31.0244C32.9587 29.8659 35.0702 27.4409 36.6625 24.2154C36.8058 23.9252 37.1573 23.8062 37.4473 23.9494C37.7375 24.0926 37.8566 24.444 37.7134 24.7341C36.1341 27.9332 34.1075 30.3628 32.6855 31.8377C31.9159 32.636 30.8392 33.0938 29.7315 33.0938V33.0938ZM4.29688 11.7871H35.7031V8.85742C35.7031 8.53438 35.4403 8.27149 35.1172 8.27149H4.88281C4.55969 8.27149 4.29688 8.53438 4.29688 8.85742V9.44336H33.9453C34.269 9.44336 34.5312 9.70571 34.5312 10.0293C34.5312 10.3529 34.269 10.6152 33.9453 10.6152H4.29688V11.7871ZM20 29.5781C17.7631 29.5781 15.9434 27.7584 15.9434 25.5216C15.9434 23.7229 16.9476 21.5882 19.1038 18.8037C19.32 18.5245 19.6466 18.3644 20 18.3644C20.3534 18.3644 20.68 18.5245 20.8962 18.8036C23.0524 21.5882 24.0566 23.7228 24.0566 25.5215C24.0566 27.7584 22.2369 29.5781 20 29.5781V29.5781ZM20 19.5604C18.059 22.0746 17.1152 24.0249 17.1152 25.5216C17.1152 27.1122 18.4094 28.4063 20 28.4063C21.5906 28.4063 22.8848 27.1122 22.8848 25.5216C22.8848 24.0249 21.941 22.0747 20 19.5604ZM19.9696 19.5212C19.9696 19.5212 19.9697 19.5212 19.9696 19.5212C19.9696 19.5211 19.9696 19.5211 19.9696 19.5212Z" fill="#156778"/>
</svg>
