<svg xmlns="http://www.w3.org/2000/svg" width="24" height="22" viewBox="0 0 24 22">
  <path id="Star_Icon_4" data-name="Star Icon 4" d="M23.483,11.908a1.767,1.767,0,0,1,.42,1.824,1.882,1.882,0,0,1-1.461,1.24l-5.591,1.056a.575.575,0,0,0-.388.269l-2.778,4.757a1.975,1.975,0,0,1-3.37,0L7.538,16.3a.575.575,0,0,0-.389-.269l-5.59-1.056A1.88,1.88,0,0,1,.1,13.732a1.765,1.765,0,0,1,.42-1.824l3.874-4a.532.532,0,0,0,.147-.436l-.676-5.41A1.789,1.789,0,0,1,4.644.355,1.973,1.973,0,0,1,5.773,0a2.019,2.019,0,0,1,.815.173L11.76,2.461a.6.6,0,0,0,.48,0L17.413.173a1.981,1.981,0,0,1,1.942.182,1.79,1.79,0,0,1,.783,1.712l-.677,5.409a.527.527,0,0,0,.149.437Z" transform="translate(24 22) rotate(180)" fill="#ffc831"/>
</svg>
