<svg width="41" height="40" viewBox="0 0 41 40" fill="none" xmlns="http://www.w3.org/2000/svg">
<path d="M28.1607 39.3994C25.0476 39.3994 21.9693 38.8301 19.0112 37.7071C16.1865 36.6347 13.248 36.0909 10.2775 36.0909C7.30709 36.0909 4.36859 36.6346 1.54392 37.7071C1.36369 37.7755 1.16165 37.7509 1.00313 37.6415C0.84469 37.5321 0.75 37.3518 0.75 37.1592V22.0111C0.75 21.7677 0.900472 21.5497 1.12798 21.4633C6.48973 19.4278 12.2102 19.2212 17.6709 20.866C17.9808 20.9593 18.1563 21.2862 18.063 21.596C17.9697 21.9059 17.6428 22.0813 17.3329 21.9881C12.25 20.4572 6.93005 20.6073 1.92182 22.4188V36.3243C4.63508 35.3915 7.44194 34.919 10.2775 34.919C13.3906 34.919 16.4689 35.4884 19.427 36.6114C22.2518 37.6838 25.1903 38.2275 28.1607 38.2275C30.999 38.2275 33.8077 37.7312 36.5163 36.7515V22.846C33.8565 23.7604 31.1055 24.2326 28.3262 24.2507C25.2712 24.2713 22.2438 23.7414 19.3299 22.6775C19.0259 22.5666 18.8695 22.2302 18.9805 21.9262C19.0914 21.6223 19.4274 21.4657 19.7318 21.5766C22.5141 22.5924 25.4026 23.0975 28.3186 23.0788C31.2353 23.0597 34.1206 22.5162 36.8943 21.4632C37.0746 21.3948 37.2766 21.4194 37.4351 21.5287C37.5935 21.6381 37.6882 21.8184 37.6882 22.011V37.1592C37.6882 37.4025 37.5377 37.6206 37.3102 37.707C34.3522 38.8301 31.2739 39.3994 28.1607 39.3994ZM25.7397 35.2987C25.4298 35.2987 25.1136 35.2883 24.7918 35.2672C22.7554 35.134 20.81 34.4836 19.0111 33.8007C17.2212 33.1213 15.3704 32.4186 13.5295 32.1695L13.0285 32.1021C11.077 31.8402 9.39151 31.614 8.16321 31.1347C6.67075 30.5522 5.94527 29.611 5.94527 28.2569C5.94527 27.2478 6.35629 26.3295 7.13381 25.6011C8.48103 24.3392 10.8544 23.72 13.6464 23.9031C15.6826 24.0364 17.6281 24.6867 19.427 25.3696C21.2168 26.0491 23.0676 26.7517 24.9087 27.0008C25.2294 27.0442 25.4541 27.3393 25.4108 27.6601C25.3674 27.9807 25.0732 28.2057 24.7516 28.1621C22.7773 27.895 20.8628 27.1681 19.0111 26.4652C17.2974 25.8146 15.452 25.1956 13.5699 25.0724C11.1003 24.9108 9.04651 25.4152 7.935 26.4564C7.39233 26.9646 7.11717 27.5704 7.11717 28.2569C7.11717 30.0432 9.1976 30.4055 13.1844 30.9405L13.6867 31.0081C15.6608 31.2752 17.5754 32.0021 19.4271 32.705C21.1407 33.3556 22.986 33.9746 24.8684 34.0978C27.338 34.2595 29.3916 33.7549 30.5032 32.7138C31.0459 32.2055 31.321 31.5997 31.321 30.9132C31.321 29.5817 30.2359 28.9669 27.0208 28.4769C26.7009 28.4281 26.4811 28.1292 26.5299 27.8094C26.5786 27.4893 26.8784 27.27 27.1974 27.3183C29.8769 27.7267 32.4929 28.3407 32.4929 30.9132C32.4929 31.9224 32.0819 32.8408 31.3043 33.5692C30.1125 34.6856 28.1171 35.2987 25.7397 35.2987V35.2987ZM19.5263 19.5654C19.5248 19.5654 19.5232 19.5654 19.5216 19.5654C19.1993 19.5628 18.9398 19.3005 18.9403 18.9786C18.9403 18.9774 18.9403 18.9761 18.9403 18.9749L18.9884 12.8812C19.0146 12.3521 18.8529 12.0646 18.2864 11.7481L16.0789 10.5144C13.539 9.09489 12.5856 5.88748 13.9534 3.36438C14.6313 2.11404 15.7564 1.20746 17.1215 0.811666C18.4871 0.415877 19.9221 0.579786 21.1629 1.27324C22.3972 1.9631 23.1639 3.26992 23.1639 4.68394V5.0766L31.2082 9.5724C31.4906 9.73029 31.5916 10.0873 31.4338 10.3698C31.2759 10.6522 30.9189 10.7533 30.6364 10.5954L23.1639 6.41913V10.4466C28.7018 13.5417 36.5744 17.9416 36.963 18.1587C37.8089 18.6315 38.8822 18.3278 39.355 17.4818C39.8279 16.6357 39.5243 15.5626 38.6782 15.0897L32.6063 11.6963C32.3239 11.5384 32.2229 11.1814 32.3807 10.8989C32.5385 10.6164 32.8954 10.5154 33.178 10.6733L39.2498 14.0666C40.6601 14.8549 41.1661 16.6433 40.378 18.0534C39.5897 19.4635 37.8013 19.9697 36.3912 19.1815C35.9988 18.9622 27.9704 14.4752 22.4252 11.3762H21.6864C20.8843 11.3762 20.1601 12.0663 20.1601 12.9052L20.1121 18.984C20.1096 19.3061 19.8478 19.5654 19.5263 19.5654V19.5654ZM18.5968 1.77286C18.2131 1.77286 17.827 1.82724 17.4479 1.93724C16.3862 2.24506 15.511 2.95023 14.9837 3.92298C13.9199 5.88521 14.6677 8.38316 16.6507 9.49138L18.8582 10.7252C19.1372 10.8811 19.3709 11.0545 19.5598 11.2467C19.8504 10.8746 20.236 10.5802 20.6793 10.4004C18.7431 9.31825 17.3782 8.5555 17.2221 8.46824C16.539 8.08651 16.0454 7.4615 15.8324 6.70851C15.6193 5.95553 15.7122 5.16457 16.094 4.48151C16.8822 3.07132 18.6708 2.56522 20.0808 3.35344L20.644 3.66821C20.9264 3.82611 21.0275 4.18307 20.8697 4.46557C20.7118 4.74808 20.3548 4.84917 20.0723 4.6912L19.5092 4.37651C18.6631 3.90361 17.59 4.20721 17.117 5.05332C16.8879 5.46317 16.8321 5.93771 16.96 6.38952C17.0879 6.84133 17.384 7.21633 17.794 7.4454C17.9694 7.54345 19.6695 8.49363 21.9921 9.7917V4.68394C21.9921 3.69407 21.4554 2.77913 20.5912 2.29623C19.9707 1.94943 19.2876 1.77286 18.5968 1.77286V1.77286Z" fill="#156778"/>
</svg>
