<svg xmlns="http://www.w3.org/2000/svg" width="17.37" height="21" viewBox="0 0 17.37 21">
  <g id="Iconly_Bulk_Bookmark" data-name="Iconly/Bulk/Bookmark" transform="translate(-0.2 -0.5)">
    <g id="Bookmark" transform="translate(0.2 0.5)">
      <path id="Bookmark_2" data-name="Bookmark 2" d="M0,5.158l7.125,3.4a1.146,1.146,0,0,0,1.51-.42,1.105,1.105,0,0,0,.136-.522V0c0,.756-.445,1.222-1.617,1.744Z" transform="translate(8.599 11.838)" fill="#bebebe"/>
      <path id="Bookmark-2" data-name="Bookmark" d="M16.084,0a1.105,1.105,0,0,0-.544.143l-6.96,3.4-7,3.413C.429,7.487,0,7.96,0,8.706v8.311a3.463,3.463,0,0,0,1.541,3.065A6.713,6.713,0,0,0,5.256,21h6.629a6.76,6.76,0,0,0,3.727-.918,3.5,3.5,0,0,0,1.568-3.065V1.085A1.094,1.094,0,0,0,16.386.042,1.11,1.11,0,0,0,16.084,0ZM4.536,14.657a.83.83,0,1,1,0-1.66h8.078a.83.83,0,1,1,0,1.66Z" transform="translate(17.179 21) rotate(180)" fill="#bebebe"/>
    </g>
  </g>
</svg>
