<svg xmlns="http://www.w3.org/2000/svg" width="19.879" height="22.622" viewBox="0 0 19.879 22.622">
  <g id="Group_45539" data-name="Group 45539" transform="translate(1463.919 1052.566)">
    <path id="Path_80994" data-name="Path 80994" d="M-1408.2-1052.566c.533.1,1.077.16,1.6.306a7.06,7.06,0,0,1,3.631,2.416,7,7,0,0,1,1.436,2.971,7.035,7.035,0,0,1-.917,5.424c-1.823,2.884-3.681,5.747-5.524,8.618-.028.043-.055.087-.084.13a.66.66,0,0,1-1.163,0c-.345-.521-.677-1.051-1.014-1.577-1.52-2.371-3.047-4.738-4.557-7.116a7,7,0,0,1-1.026-5.09,7.249,7.249,0,0,1,5.714-5.928c.336-.072.681-.1,1.022-.15Zm2.87,7.288a3.323,3.323,0,0,0-3.318-3.312,3.323,3.323,0,0,0-3.307,3.3,3.323,3.323,0,0,0,3.307,3.324A3.323,3.323,0,0,0-1405.328-1045.278Z" transform="translate(-45.334)" fill="#bebebe"/>
    <path id="Path_80995" data-name="Path 80995" d="M-1453.484-769.467a23.782,23.782,0,0,1-6.4-.757,7.826,7.826,0,0,1-3.026-1.43,3.455,3.455,0,0,1-.764-.9,1.9,1.9,0,0,1,.339-2.281,5.523,5.523,0,0,1,2.271-1.437c.563-.209,1.15-.356,1.721-.545.154-.051.219,0,.3.121q1.583,2.484,3.175,4.962a2.155,2.155,0,0,0,1.726,1.078,2.038,2.038,0,0,0,1.918-.87c.462-.654.877-1.342,1.31-2.016.671-1.046,1.343-2.091,2.006-3.143a.251.251,0,0,1,.335-.128,11.215,11.215,0,0,1,2.854,1.087,4.032,4.032,0,0,1,1.307,1.134,1.964,1.964,0,0,1-.178,2.532,5.642,5.642,0,0,1-2.047,1.346,15.57,15.57,0,0,1-4.357,1.055C-1451.989-769.55-1452.982-769.5-1453.484-769.467Z" transform="translate(0 -260.477)" fill="#bebebe"/>
  </g>
</svg>
