<svg xmlns="http://www.w3.org/2000/svg" width="20.567" height="20.564" viewBox="0 0 20.567 20.564">
  <g id="Group_45926" data-name="Group 45926" transform="translate(-202.004 -290.438)">
    <path id="Path_81062" data-name="Path 81062" d="M202.009,294.956c0-.951,0-1.9,0-2.852a1.627,1.627,0,0,1,1.676-1.665q2.853,0,5.705,0a1.626,1.626,0,0,1,1.665,1.675q0,2.852,0,5.7a1.626,1.626,0,0,1-1.676,1.665q-2.853,0-5.705,0a1.627,1.627,0,0,1-1.665-1.676C202.007,296.858,202.009,295.907,202.009,294.956Z" transform="translate(-0.003 0)" fill="#bebebe"/>
    <path id="Path_81063" data-name="Path 81063" d="M369.737,294.956c0-.951,0-1.9,0-2.852a1.627,1.627,0,0,1,1.676-1.665q2.853,0,5.705,0a1.626,1.626,0,0,1,1.665,1.675q0,2.852,0,5.7a1.626,1.626,0,0,1-1.676,1.665q-2.853,0-5.705,0a1.627,1.627,0,0,1-1.665-1.676C369.736,296.858,369.737,295.907,369.737,294.956Z" transform="translate(-156.214 0)" fill="#bebebe"/>
    <path id="Path_81064" data-name="Path 81064" d="M211.053,462.688c0,.942,0,1.884,0,2.826a1.629,1.629,0,0,1-1.672,1.67q-2.853,0-5.705,0a1.627,1.627,0,0,1-1.67-1.671q0-2.852,0-5.7a1.626,1.626,0,0,1,1.671-1.67q2.853,0,5.705,0a1.627,1.627,0,0,1,1.67,1.671C211.055,460.77,211.053,461.729,211.053,462.688Z" transform="translate(0 -156.184)" fill="#bebebe"/>
    <path id="Path_81065" data-name="Path 81065" d="M374.291,458.152a4.523,4.523,0,1,1-4.543,4.5A4.513,4.513,0,0,1,374.291,458.152Z" transform="translate(-156.225 -156.197)" fill="#bebebe"/>
  </g>
</svg>
