<svg xmlns="http://www.w3.org/2000/svg" width="18.405" height="22.061" viewBox="0 0 18.405 22.061">
  <g id="user" transform="translate(0 0)">
    <path id="Path_80314" data-name="Path 80314" d="M92.345,10.627A5.141,5.141,0,0,0,96.1,9.07a5.141,5.141,0,0,0,1.557-3.757A5.142,5.142,0,0,0,96.1,1.557a5.312,5.312,0,0,0-7.514,0,5.141,5.141,0,0,0-1.557,3.757A5.141,5.141,0,0,0,88.589,9.07,5.142,5.142,0,0,0,92.345,10.627Zm0,0" transform="translate(-83.282 0)" fill="#bebebe"/>
    <path id="Path_80315" data-name="Path 80315" d="M18.361,253.624a13.124,13.124,0,0,0-.179-1.394,10.981,10.981,0,0,0-.343-1.4,6.921,6.921,0,0,0-.576-1.307,4.933,4.933,0,0,0-.869-1.132,3.831,3.831,0,0,0-1.248-.784,4.314,4.314,0,0,0-1.593-.288,1.617,1.617,0,0,0-.864.366c-.259.169-.562.364-.9.58a5.154,5.154,0,0,1-1.164.513,4.52,4.52,0,0,1-2.847,0,5.143,5.143,0,0,1-1.163-.513c-.335-.214-.638-.409-.9-.58a1.615,1.615,0,0,0-.863-.366,4.308,4.308,0,0,0-1.593.289,3.827,3.827,0,0,0-1.248.784,4.933,4.933,0,0,0-.868,1.132,6.936,6.936,0,0,0-.576,1.307,11.007,11.007,0,0,0-.343,1.4,13.078,13.078,0,0,0-.179,1.394c-.029.422-.044.86-.044,1.3A3.663,3.663,0,0,0,1.088,257.7a3.917,3.917,0,0,0,2.8,1.023H14.514a3.916,3.916,0,0,0,2.8-1.023,3.662,3.662,0,0,0,1.088-2.772c0-.445-.015-.883-.045-1.3Zm0,0" transform="translate(0 -236.66)" fill="#bebebe"/>
  </g>
</svg>
