<svg xmlns="http://www.w3.org/2000/svg" width="16.018" height="19.061" viewBox="0 0 16.018 19.061">
  <path id="Icon_awesome-apple" data-name="Icon awesome-apple" d="M13.673,12.323A3.973,3.973,0,0,1,15.8,8.714a4.572,4.572,0,0,0-3.6-1.9C10.686,6.7,9.035,7.7,8.431,7.7c-.638,0-2.1-.838-3.251-.838C2.8,6.9.281,8.752.281,12.527a10.606,10.606,0,0,0,.613,3.455c.545,1.562,2.511,5.392,4.562,5.328,1.072-.026,1.83-.762,3.226-.762,1.353,0,2.055.762,3.251.762C14,21.281,15.78,17.8,16.3,16.234a4.218,4.218,0,0,1-2.626-3.911ZM11.265,5.335A4.008,4.008,0,0,0,12.286,2.25,4.512,4.512,0,0,0,9.4,3.735a4.071,4.071,0,0,0-1.089,3.06,3.574,3.574,0,0,0,2.958-1.46Z" transform="translate(-0.281 -2.25)" fill="#00a9ca"/>
</svg>
