<svg xmlns="http://www.w3.org/2000/svg" width="13" height="13" viewBox="0 0 13 13">
  <g id="Group_45214" data-name="Group 45214" transform="translate(-176.859 -132.86)">
    <path id="Fill_955" data-name="Fill 955" d="M11.333,13c-.056,0-.113,0-.17-.008A12.463,12.463,0,0,1,.008,1.837,1.619,1.619,0,0,1,.422.575,1.762,1.762,0,0,1,1.727,0H3.838A1.777,1.777,0,0,1,5.527,1.217L6.211,3.27a1.772,1.772,0,0,1-.43,1.822l-.33.33A7.022,7.022,0,0,0,7.584,7.544l.324-.325a1.781,1.781,0,0,1,1.822-.43l2.053.685A1.777,1.777,0,0,1,13,9.162v2.111A1.7,1.7,0,0,1,11.333,13ZM1.727,1.186a.55.55,0,0,0-.416.176.466.466,0,0,0-.122.357A11.285,11.285,0,0,0,11.281,11.811l.044,0a.475.475,0,0,0,.338-.147.558.558,0,0,0,.151-.392V9.162a.593.593,0,0,0-.406-.563L9.354,7.915a.593.593,0,0,0-.607.143l-.328.329a1.192,1.192,0,0,1-.837.347,1.158,1.158,0,0,1-.657-.2A8.2,8.2,0,0,1,4.452,6.065a1.176,1.176,0,0,1,.154-1.476l.336-.336a.588.588,0,0,0,.142-.607L4.4,1.593a.591.591,0,0,0-.562-.406Zm10.68,3.56a.594.594,0,0,1-.593-.593A2.97,2.97,0,0,0,8.847,1.186.593.593,0,1,1,8.847,0,4.158,4.158,0,0,1,13,4.153.594.594,0,0,1,12.407,4.747Zm-2.374,0a.594.594,0,0,1-.593-.593.594.594,0,0,0-.593-.593.594.594,0,0,1,0-1.187,1.782,1.782,0,0,1,1.78,1.78A.594.594,0,0,1,10.033,4.747Z" transform="translate(176.859 132.86)" fill="#fff"/>
  </g>
</svg>
