<svg id="Icon_feather-check-circle" data-name="Icon feather-check-circle" xmlns="http://www.w3.org/2000/svg" width="17" height="17" viewBox="0 0 17 17">
  <path id="Path_71816" data-name="Path 71816" d="M10.5,18.987A8.5,8.5,0,1,1,13.959,2.725a.654.654,0,1,1-.532,1.194A7.191,7.191,0,0,0,4.466,14.4a7.192,7.192,0,0,0,13.226-3.909V9.77A.654.654,0,0,1,19,9.77v.722a8.512,8.512,0,0,1-8.5,8.5Z" transform="translate(-1.999 -1.987)" fill="#00a9ca"/>
  <path id="Path_71817" data-name="Path 71817" d="M15.505,14.154a.653.653,0,0,1-.462-.191l-2.352-2.352a.653.653,0,0,1,.924-.924l1.89,1.89,7.377-7.385a.653.653,0,0,1,.924.923l-7.839,7.847A.653.653,0,0,1,15.505,14.154Z" transform="translate(-6.998 -3.425)" fill="#00a9ca"/>
</svg>
