<svg xmlns="http://www.w3.org/2000/svg" width="18" height="18" viewBox="0 0 18 18">
  <g id="Group_45674" data-name="Group 45674" transform="translate(-30 -247)">
    <circle id="Ellipse_1901" data-name="Ellipse 1901" cx="9" cy="9" r="9" transform="translate(30 247)" fill="#c7c7c7"/>
    <path id="Icon_awesome-phone-alt" data-name="Icon awesome-phone-alt" d="M7.957,5.788,6.165,5.02a.384.384,0,0,0-.448.11L4.924,6.1A5.93,5.93,0,0,1,2.089,3.266l.969-.793a.383.383,0,0,0,.11-.448L2.4.232A.387.387,0,0,0,1.961.01L.3.394A.384.384,0,0,0,0,.768,7.422,7.422,0,0,0,7.423,8.191a.384.384,0,0,0,.374-.3L8.181,6.23a.389.389,0,0,0-.224-.442Z" transform="translate(35.004 251.904)" fill="#ffffff"/>
  </g>
</svg>
