<svg xmlns="http://www.w3.org/2000/svg" width="16.384" height="17.842" viewBox="0 0 16.384 17.842">
  <g id="Group_43520" data-name="Group 43520" transform="translate(0.251 0.25)">
    <path id="Path_80267" data-name="Path 80267" d="M31.966,7.169h-.043V6.117a6.117,6.117,0,0,0-12.234,0V7.169h-.258a1.748,1.748,0,0,0-1.674,1.8v2.683a1.7,1.7,0,0,0,1.652,1.738h1.61a.408.408,0,0,0,.388-.427q0-.012,0-.024V7.684c0-.258-.15-.515-.386-.515h-.472V6.117a5.259,5.259,0,1,1,10.517,0V7.169h-.472c-.236,0-.386.258-.386.515v5.259a.408.408,0,0,0,.362.449l.024,0h.494l-.043.064a3.391,3.391,0,0,1-2.726,1.352,2.125,2.125,0,0,0-4.207.408,2.146,2.146,0,0,0,2.146,2.125,2.211,2.211,0,0,0,1.545-.665,1.889,1.889,0,0,0,.515-1.03,4.25,4.25,0,0,0,3.413-1.7l.408-.6a1.461,1.461,0,0,0,1.5-1.481V9.186A1.95,1.95,0,0,0,31.966,7.169ZM20.547,12.535H19.431a.837.837,0,0,1-.816-.857q0-.011,0-.023V8.972a.89.89,0,0,1,.816-.944h1.116Zm6.632,3.541a1.266,1.266,0,0,1-.923.408,1.309,1.309,0,0,1-1.288-1.266,1.266,1.266,0,1,1,2.533,0h0A1.138,1.138,0,0,1,27.179,16.076Zm5.6-4.207c0,.58-.558.665-.816.665h-.9V8.027h.9c.472,0,.816.665.816,1.159Z" transform="translate(-17.756 0)" fill="#3b3b3b" stroke="#3b3b3b" stroke-width="0.5"/>
  </g>
</svg>
