<svg xmlns="http://www.w3.org/2000/svg" width="8.945" height="9.939" viewBox="0 0 8.945 9.939">
  <path id="Icon_material-date-range" data-name="Icon material-date-range" d="M7.482,7.473H6.488v.994h.994Zm1.988,0H8.476v.994H9.47Zm1.988,0h-.994v.994h.994Zm.994-3.479h-.5V3h-.994v.994H6.985V3H5.991v.994h-.5a.989.989,0,0,0-.989.994l0,6.958a.994.994,0,0,0,.994.994h6.958a1,1,0,0,0,.994-.994V4.988A1,1,0,0,0,12.452,3.994Zm0,7.952H5.494V6.479h6.958Z" transform="translate(-4.5 -3)" fill="#1498ad"/>
</svg>
