<svg xmlns="http://www.w3.org/2000/svg" width="11.83" height="15.045" viewBox="0 0 11.83 15.045">
  <g id="Group_45567" data-name="Group 45567" transform="translate(0 0)">
    <g id="badge" transform="translate(0 0)">
      <g id="Group_42428" data-name="Group 42428" transform="translate(0 0)">
        <g id="Group_42424" data-name="Group 42424" transform="translate(0.989 7.627)">
          <path id="Path_80047" data-name="Path 80047" d="M90.4,265.317l2.1-5.061-1.684-.7-2.415,5.831a.314.314,0,0,0,.383.421l1.37-.42a.3.3,0,0,1,.12-.012Z" transform="translate(-88.368 -259.558)" fill="#fff"/>
          <path id="Path_80048" data-name="Path 80048" d="M155.062,282.027l-2.137,5.159a.314.314,0,0,1,.25.166l.671,1.266a.314.314,0,0,0,.568-.027l2.415-5.831Z" transform="translate(-151.028 -281.367)" fill="#ffcb52"/>
          <path id="Path_80049" data-name="Path 80049" d="M228,281.364l-1.815.752,2.415,5.831a.314.314,0,0,0,.568.027l.671-1.266a.314.314,0,0,1,.081-.1l.164-.208Z" transform="translate(-222.136 -280.723)" fill="#ffcb52"/>
          <path id="Path_80050" data-name="Path 80050" d="M284.817,265.388l-2.415-5.831-1.762.73,2.136,5.157a.314.314,0,0,1,.288-.055l1.37.42A.314.314,0,0,0,284.817,265.388Z" transform="translate(-274.99 -259.557)" fill="#fff"/>
        </g>
        <g id="Group_42427" data-name="Group 42427">
          <path id="Path_80051" data-name="Path 80051" d="M61.223.211a.976.976,0,0,0,.9.167A.976.976,0,0,1,63.25.817a.976.976,0,0,0,.775.48.976.976,0,0,1,.9.817.976.976,0,0,0,.549.727.976.976,0,0,1,.541,1.086.976.976,0,0,0,.249.877.976.976,0,0,1,.112,1.208.976.976,0,0,0-.084.908.976.976,0,0,1-.332,1.167.976.976,0,0,0-.406.816.976.976,0,0,1-.731.968.976.976,0,0,0-.674.614.976.976,0,0,1-1.031.639.976.976,0,0,0-.85.329.976.976,0,0,1-1.192.223.976.976,0,0,0-.911,0,.976.976,0,0,1-1.192-.223.976.976,0,0,0-.85-.329.976.976,0,0,1-1.031-.639.976.976,0,0,0-.674-.614.976.976,0,0,1-.731-.968.976.976,0,0,0-.406-.816.976.976,0,0,1-.332-1.167.976.976,0,0,0-.084-.908A.976.976,0,0,1,54.972,4.8a.976.976,0,0,0,.249-.877.976.976,0,0,1,.541-1.086.976.976,0,0,0,.549-.727.976.976,0,0,1,.9-.817.976.976,0,0,0,.775-.48A.976.976,0,0,1,59.114.379a.976.976,0,0,0,.9-.167.976.976,0,0,1,1.213,0Z" transform="translate(-54.701 0)" fill="#ffcb52"/>
        </g>
      </g>
    </g>
    <g id="Group_42458" data-name="Group 42458" transform="translate(3.242 3.584)">
      <path id="Path_80062" data-name="Path 80062" d="M156.655,101.328l1.323.891a.185.185,0,0,0,.16.025q.07-.1.135-.195a.2.2,0,0,0-.007-.039l-.438-1.534a.189.189,0,0,1,.065-.2l1.011-.791a4.029,4.029,0,0,0-.086-.538l-1.372-.049a.189.189,0,0,1-.171-.124l-.547-1.5a.189.189,0,0,0-.355,0l-.547,1.5a.189.189,0,0,1-.171.124l-1.594.057a.189.189,0,0,0-.11.338l1.256.983a.189.189,0,0,1,.065.2l-.438,1.534a.189.189,0,0,0,.288.209l1.323-.891A.189.189,0,0,1,156.655,101.328Z" transform="translate(-153.877 -97.15)" fill="#fff"/>
      <g id="Group_42434" data-name="Group 42434" transform="translate(4.024 1.787)">
        <path id="Path_80063" data-name="Path 80063" d="M307.735,272.728a.189.189,0,0,0,.287-.209l-.079-.278a3.837,3.837,0,0,1-.285.435Z" transform="translate(-307.658 -269.446)" fill="#fff"/>
        <path id="Path_80064" data-name="Path 80064" d="M333.48,165.456l-.475-.017a3.831,3.831,0,0,1,.106.729l.478-.374A.189.189,0,0,0,333.48,165.456Z" transform="translate(-332.342 -165.439)" fill="#fff"/>
      </g>
    </g>
  </g>
</svg>
