<svg xmlns="http://www.w3.org/2000/svg" width="12.061" height="12.046" viewBox="0 0 12.061 12.046">
  <path id="Path_81024" data-name="Path 81024" d="M-11.985,863.8a6.038,6.038,0,0,1-6.022-6.041,6.037,6.037,0,0,1,6.079-6,6.038,6.038,0,0,1,5.982,6.041A6.038,6.038,0,0,1-11.985,863.8Zm.6-3.2c.088,0,.154,0,.22,0a1.732,1.732,0,0,0,1.687-1.65,1.718,1.718,0,0,0-1.712-1.8c-.4-.008-.807,0-1.211,0a.506.506,0,0,1-.548-.541.508.508,0,0,1,.563-.466c.476,0,.953,0,1.429,0h.592v-1.18h-1.022v-.764h-1.2v.763l-.092.015a1.685,1.685,0,0,0-1.413,2.078,1.666,1.666,0,0,0,1.523,1.264c.416.015.834,0,1.25.012a.943.943,0,0,1,.381.083.526.526,0,0,1,.25.613.556.556,0,0,1-.556.4c-.807,0-1.615,0-2.422,0h-.219V860.6h1.306v.75h1.188Z" transform="translate(18.007 -851.754)" fill="#00a9ca"/>
</svg>
