<svg xmlns="http://www.w3.org/2000/svg" width="18.329" height="18.238" viewBox="0 0 18.329 18.238">
  <g id="edit" transform="translate(0.15 -0.261)">
    <path id="Path_18576" data-name="Path 18576" d="M16.778,48.761a.453.453,0,0,0-.453.453v4.02a1.36,1.36,0,0,1-1.358,1.358H2.264A1.36,1.36,0,0,1,.905,53.234v-11.8a1.36,1.36,0,0,1,1.358-1.358h4.02a.453.453,0,0,0,0-.905H2.264A2.266,2.266,0,0,0,0,41.436v11.8A2.266,2.266,0,0,0,2.264,55.5h12.7a2.266,2.266,0,0,0,2.264-2.264v-4.02a.453.453,0,0,0-.453-.453Zm0,0" transform="translate(0 -37.15)" stroke="#000" stroke-width="0.3"/>
    <path id="Path_18577" data-name="Path 18577" d="M120.344.858a2.037,2.037,0,0,0-2.881,0l-8.077,8.077a.453.453,0,0,0-.116.2l-1.062,3.835a.453.453,0,0,0,.557.557l3.835-1.062a.453.453,0,0,0,.2-.116l8.077-8.077a2.04,2.04,0,0,0,0-2.881Zm-9.972,8.372,6.611-6.611,2.132,2.132L112.5,11.361Zm-.426.855,1.7,1.7-2.356.653ZM120.235,3.63l-.48.48-2.132-2.132.48-.48a1.132,1.132,0,0,1,1.6,0l.531.531A1.133,1.133,0,0,1,120.235,3.63Zm0,0" transform="translate(-103.292)"/>
  </g>
</svg>
