<svg xmlns="http://www.w3.org/2000/svg" width="18.355" height="16.841" viewBox="0 0 18.355 16.841">
  <path id="Icon_material-favorite-border" data-name="Icon material-favorite-border" d="M16.308,4.5a5.5,5.5,0,0,0-4.13,1.918A5.5,5.5,0,0,0,8.048,4.5,5,5,0,0,0,3,9.548c0,3.469,3.12,6.3,7.847,10.591l1.331,1.2,1.331-1.211c4.727-4.286,7.847-7.113,7.847-10.582A5,5,0,0,0,16.308,4.5ZM12.269,18.771l-.092.092-.092-.092c-4.369-3.956-7.25-6.571-7.25-9.224A3.137,3.137,0,0,1,8.048,6.336,3.588,3.588,0,0,1,11.324,8.5H13.04a3.565,3.565,0,0,1,3.267-2.166A3.137,3.137,0,0,1,19.52,9.548C19.52,12.2,16.638,14.816,12.269,18.771Z" transform="translate(-3 -4.5)" fill="rgba(0,0,0,0.76)"/>
</svg>
