<svg id="google-symbol" xmlns="http://www.w3.org/2000/svg" width="17.301" height="17.301" viewBox="0 0 17.301 17.301">
  <path id="Path_18503" data-name="Path 18503" d="M17.163,7.049a.139.139,0,0,1,.139.139V8.651a8.65,8.65,0,1,1-2.635-6.217.14.14,0,0,1,0,.2L12.6,4.7a.139.139,0,0,1-.194,0,5.447,5.447,0,1,0,1.453,5.548H8.79a.139.139,0,0,1-.139-.139V7.189a.139.139,0,0,1,.139-.139h8.372Z" transform="translate(0 0)" fill="#00a9ca"/>
  <g id="Group_36705" data-name="Group 36705" transform="translate(8.128 7.049)">
    <path id="Path_18504" data-name="Path 18504" d="M249.565,208.612h-1.044a.139.139,0,0,1,.139.139v1.462a8.643,8.643,0,0,1-8.129,8.635q.229.014.462.015a8.644,8.644,0,0,0,8.712-8.65v-1.462A.139.139,0,0,0,249.565,208.612Z" transform="translate(-240.531 -208.612)" fill="#00a9ca"/>
  </g>
  <path id="Path_18505" data-name="Path 18505" d="M34.439,6.369l-2.627-1.9A8.653,8.653,0,0,1,45.4,2.434a.14.14,0,0,1,0,.2L43.337,4.7a.139.139,0,0,1-.194,0,5.449,5.449,0,0,0-8.7,1.665Z" transform="translate(-30.737 0)" fill="#00a9ca"/>
  <path id="Path_18506" data-name="Path 18506" d="M87.115,97.4l.758.548a5.451,5.451,0,0,1,4.382-3.137l.044,0q-.257-.024-.521-.025A5.432,5.432,0,0,0,87.115,97.4Z" transform="translate(-84.171 -91.574)" fill="#00a9ca"/>
  <path id="Path_18507" data-name="Path 18507" d="M246.038,2.434a.14.14,0,0,1,0,.2l-1.679,1.679a5.47,5.47,0,0,1,.461.392.139.139,0,0,0,.194,0l2.068-2.068a.14.14,0,0,0,0-.2A8.624,8.624,0,0,0,241.067,0c-.175,0-.349.006-.522.016A8.623,8.623,0,0,1,246.038,2.434Z" transform="translate(-232.417 0)" fill="#00a9ca"/>
  <path id="Path_18508" data-name="Path 18508" d="M41.065,319.948a8.652,8.652,0,0,1-14.085-2.01l2.682-1.838a5.449,5.449,0,0,0,8.775,1.95Z" transform="translate(-26.068 -305.418)" fill="#00a9ca"/>
  <path id="Path_18509" data-name="Path 18509" d="M83.741,316.1l-.791.542a5.447,5.447,0,0,0,4.8,2.875c.176,0,.349-.009.521-.025A5.452,5.452,0,0,1,83.741,316.1Z" transform="translate(-80.147 -305.419)" fill="#00a9ca"/>
  <path id="Path_18510" data-name="Path 18510" d="M241.107,419.457a8.627,8.627,0,0,0,6.346-2.772l-.643-.465a8.635,8.635,0,0,1-6.223,3.221Q240.844,419.456,241.107,419.457Z" transform="translate(-232.456 -402.155)" fill="#00a9ca"/>
  <path id="Path_18511" data-name="Path 18511" d="M3.2,136.486a5.432,5.432,0,0,0,.391,2.031L.912,140.355a8.664,8.664,0,0,1,.163-8.049L3.7,134.2A5.425,5.425,0,0,0,3.2,136.486Z" transform="translate(0 -127.835)" fill="#00a9ca"/>
  <path id="Path_18512" data-name="Path 18512" d="M64.516,177.667l.791-.542a5.463,5.463,0,0,1,.108-4.312l-.758-.548a5.474,5.474,0,0,0-.141,5.4Z" transform="translate(-61.713 -166.444)" fill="#00a9ca"/>
</svg>
