<svg xmlns="http://www.w3.org/2000/svg" width="14.974" height="19.595" viewBox="0 0 14.974 19.595">
  <g id="insurance" transform="translate(0.1 0.1)">
    <path id="Path_17486" data-name="Path 17486" d="M75.607,3.955,71.819.166a.568.568,0,0,0-.4-.166H63.083A2.086,2.086,0,0,0,61,2.083V17.311a2.086,2.086,0,0,0,2.084,2.083H73.69a2.086,2.086,0,0,0,2.084-2.083V4.356A.568.568,0,0,0,75.607,3.955ZM71.986,1.94l1.848,1.848H71.986Zm1.7,16.319H63.083a.948.948,0,0,1-.947-.947V2.083a.948.948,0,0,1,.947-.947h7.766v3.22a.568.568,0,0,0,.568.568h3.22V17.311A.948.948,0,0,1,73.69,18.259Z" transform="translate(-61 0)" fill="#3b3b3b" stroke="#3b3b3b" stroke-width="0.2"/>
    <path id="Path_17487" data-name="Path 17487" d="M149.145,163.515a1.873,1.873,0,0,1-1.685-1.041l-.08-.16a.568.568,0,0,0-.508-.314h-3.031a.568.568,0,0,0-.508.314l-.08.16a1.873,1.873,0,0,1-1.685,1.041.568.568,0,0,0-.568.568v3.242a5.884,5.884,0,0,0,4.193,5.636.568.568,0,0,0,.327,0,5.884,5.884,0,0,0,4.193-5.636v-3.242A.568.568,0,0,0,149.145,163.515Zm-.568,3.811a4.716,4.716,0,0,1-3.22,4.495,4.716,4.716,0,0,1-3.22-4.495V164.6a3,3,0,0,0,2.05-1.462h2.339a3,3,0,0,0,2.05,1.462Z" transform="translate(-137.969 -155.863)" fill="#3b3b3b" stroke="#3b3b3b" stroke-width="0.2"/>
    <path id="Path_17488" data-name="Path 17488" d="M201.954,263.882l-1.741,1.741-.67-.67a.568.568,0,0,0-.8.8l1.071,1.071a.568.568,0,0,0,.8,0l2.143-2.143a.568.568,0,0,0-.8-.8Z" transform="translate(-193.362 -253.726)" fill="#3b3b3b" stroke="#3b3b3b" stroke-width="0.2"/>
  </g>
</svg>
