<svg xmlns="http://www.w3.org/2000/svg" width="384.623" height="25.763" viewBox="0 0 384.623 25.763">
  <g id="Group_5493" data-name="Group 5493" transform="translate(3.014 -722.849)" opacity="0.8">
    <path id="Path_2736" data-name="Path 2736" d="M380.776,728.7a313.389,313.389,0,0,0-48.934,4.148c-29.512,4.92-44.962,12.141-71.541,14.024-13.737.972-27.7.12-34.508-.2a80.428,80.428,0,0,1-12.064-1.363c-4.489-.779-8.978-1.753-13.466-2.727-9.258-2.337-17.955-5.064-26.933-7.791-5.331-1.558-10.38-2.922-15.711-4.285-4.769-1.168-9.258-1.947-14.028-2.727-1.909-.312-7.774-1.12-15.711-1.558-4.312-.238-21.644-1.042-46.291,2.727-.124.019-1.809.277-3.647.584-21.6,3.608-55.6,12.512-80.823,19.463" transform="translate(0 -0.868)" fill="none" stroke="#28357b" stroke-miterlimit="10" stroke-width="1" opacity="0.4"/>
    <path id="Path_2737" data-name="Path 2737" d="M1.539,726.087a309.783,309.783,0,0,1,48.647,4.148c29.339,4.92,44.7,12.141,71.121,14.024,13.656.972,27.542.12,34.305-.2a79.485,79.485,0,0,0,11.993-1.363c4.463-.779,8.925-1.753,13.388-2.727,9.2-2.337,17.85-5.064,26.775-7.791,5.3-1.558,10.32-2.922,15.619-4.285,4.741-1.168,9.2-1.947,13.945-2.727,1.9-.312,7.728-1.12,15.619-1.558,4.286-.238,21.516-1.042,46.019,2.727.123.019,1.8.277,3.626.584,21.469,3.608,55.274,12.512,80.349,19.463" transform="translate(-1.469)" fill="none" stroke="#1498ad" stroke-miterlimit="10" stroke-width="1" opacity="0.4"/>
  </g>
</svg>
