<svg xmlns="http://www.w3.org/2000/svg" width="54.147" height="28.014" viewBox="0 0 54.147 28.014">
  <g id="Group_45346" data-name="Group 45346" transform="translate(-10.322 -1244.285)">
    <path id="Path_80537" data-name="Path 80537" d="M64.5,1264.751c-.11.176-.233.345-.329.528q-4.4,8.446-8.793,16.9a1.062,1.062,0,0,1-.717.617,31.862,31.862,0,0,1-12.426.7,78.057,78.057,0,0,1-10.467-2.22,26.55,26.55,0,0,0-8.846-.774,25.626,25.626,0,0,0-11.518,3.659,9.09,9.09,0,0,1-1,.452c-.02-.29-.039-.444-.04-.6,0-1.347.005-2.694-.007-4.04a.573.573,0,0,1,.358-.617A165.21,165.21,0,0,1,42.625,1267.4a86.618,86.618,0,0,1,13.237-2.423c2.483-.228,4.981-.3,7.473-.417a8.911,8.911,0,0,1,1.163.09Zm-28.585,9.75a1.444,1.444,0,0,0-1.457-1.437,1.492,1.492,0,0,0-1.425,1.438,1.436,1.436,0,0,0,1.452,1.441A1.392,1.392,0,0,0,35.912,1274.5Zm1.759-1.416a1.437,1.437,0,0,0,1.465,1.424,1.471,1.471,0,0,0,1.407-1.446,1.426,1.426,0,0,0-1.455-1.429A1.388,1.388,0,0,0,37.671,1273.085Zm-7.613,1.445a1.441,1.441,0,0,0-.032,2.88,1.44,1.44,0,1,0,.032-2.88Z" transform="translate(-0.028 -17.186)" fill="#00a9ca"/>
    <path id="Path_80538" data-name="Path 80538" d="M90.309,1247.293a106.521,106.521,0,0,0-24.492,7.378l-1.315-4.326c1.691-.543,3.331-1.071,4.973-1.6.2-.064.412-.1.607-.182a.886.886,0,0,0-.523-1.692q-1.834.519-3.65,1.1c-.62.2-1.222.453-1.9.707l-.469-1.436a8.645,8.645,0,0,1-3.874.02l-.043-.176c1.482-.5,2.942-1.087,4.45-1.492a36.034,36.034,0,0,1,13.621-1.076,57.763,57.763,0,0,1,5.744,1.243Z" transform="translate(-41.808 0)" fill="#00a9ca"/>
    <path id="Path_80539" data-name="Path 80539" d="M60.681,1375.443a19.61,19.61,0,0,1-8.3,4.759,30.653,30.653,0,0,1-11.929.945,53.274,53.274,0,0,1-8.662-2,33.478,33.478,0,0,0-12.873-1.118,32.084,32.084,0,0,0-8.043,2.044c-.16.063-.322.124-.483.186l-.072-.129c1.029-.618,2.028-1.293,3.092-1.844a24.632,24.632,0,0,1,9.532-2.68,27.435,27.435,0,0,1,9.506.986,66.687,66.687,0,0,0,9.011,1.935,31.445,31.445,0,0,0,13.975-.85c1.639-.526,3.192-1.323,4.782-2C60.378,1375.611,60.527,1375.521,60.681,1375.443Z" transform="translate(0 -111.218)" fill="#00a9ca"/>
    <path id="Path_80540" data-name="Path 80540" d="M43.149,1404.447c-1.051.251-2.092.565-3.155.741a23.457,23.457,0,0,1-10.949-.894,27.551,27.551,0,0,0-7.873-1.323,22.1,22.1,0,0,0-8.193,1.513,2.385,2.385,0,0,1-.5.146,13.83,13.83,0,0,1,3.721-2.07,18.973,18.973,0,0,1,12.237-.4,34.569,34.569,0,0,0,8.333,1.5c2.062.056,4.083.354,6.119.586.077.009.154.021.231.031Z" transform="translate(-1.833 -133.18)" fill="#00a9ca"/>
    <path id="Path_80541" data-name="Path 80541" d="M118.625,1401.907l-7.729-1.659c.907-.314,6.747.97,7.761,1.51Z" transform="translate(-85.284 -132.21)" fill="#9914ad"/>
  </g>
</svg>
