<svg xmlns="http://www.w3.org/2000/svg" width="16.972" height="18" viewBox="0 0 16.972 18">
  <path id="Shape" d="M2.829,16.971A2.763,2.763,0,0,1,0,14.274V5.315a.732.732,0,0,1,.771-.686.732.732,0,0,1,.771.686v8.959A1.309,1.309,0,0,0,2.829,15.6H15.171a1.309,1.309,0,0,0,1.286-1.326V5.315a.777.777,0,0,1,1.543,0v8.959a2.763,2.763,0,0,1-2.829,2.7Zm5.348-6.634v-7.7l-2.8,2.8A.772.772,0,1,1,4.289,4.34L8.4.226a.772.772,0,0,1,1.092,0L13.608,4.34a.772.772,0,1,1-1.091,1.092l-2.8-2.8v7.7c0,.256-.346.463-.771.463S8.177,10.593,8.177,10.337Z" transform="translate(0 18) rotate(-90)" fill="#fff"/>
</svg>
