<svg xmlns="http://www.w3.org/2000/svg" width="13.258" height="11.316" viewBox="0 0 13.258 11.316">
  <path id="Icon_awesome-map-marked-alt" data-name="Icon awesome-map-marked-alt" d="M6.629,0a2.844,2.844,0,0,0-2.9,2.785c0,1.243,1.9,3.51,2.622,4.332a.373.373,0,0,0,.557,0c.726-.823,2.622-3.089,2.622-4.332A2.844,2.844,0,0,0,6.629,0Zm0,3.713a.948.948,0,0,1-.967-.928.968.968,0,0,1,1.933,0A.948.948,0,0,1,6.629,3.713ZM.463,4.773A.708.708,0,0,0,0,5.429v5.532a.367.367,0,0,0,.5.328L3.683,9.9V4.75a6.568,6.568,0,0,1-.489-1.026ZM6.629,7.949a1.119,1.119,0,0,1-.84-.375c-.453-.513-.934-1.1-1.369-1.7V9.9l4.419,1.414V5.879c-.435.6-.917,1.183-1.369,1.7A1.119,1.119,0,0,1,6.629,7.949Zm6.124-4.387L9.575,4.951v6.365l3.22-1.237a.708.708,0,0,0,.463-.657V3.89A.367.367,0,0,0,12.753,3.562Z" fill="#fff"/>
</svg>
