<svg xmlns="http://www.w3.org/2000/svg" width="18" height="18" viewBox="0 0 18 18">
  <path id="Fill_951" data-name="Fill 951" d="M1.626,0A1.63,1.63,0,0,0,.267.745,1.6,1.6,0,0,0,.137,2.276L1.188,4.729A8.952,8.952,0,1,0,4.728,1.188L2.276.137A1.643,1.643,0,0,0,1.626,0ZM9.041,16.371A7.331,7.331,0,0,1,2.792,5.21l.221-.359L1.634,1.634,4.851,3.013l.36-.22a7.329,7.329,0,1,1,3.83,13.578ZM12.3,6.6H5.784a.814.814,0,1,0,0,1.629H12.3a.814.814,0,1,0,0-1.629ZM8.228,9.856H5.784a.814.814,0,1,0,0,1.629H8.228a.814.814,0,0,0,0-1.629Z" transform="translate(18 18) rotate(180)" fill="#fff"/>
</svg>
