<svg xmlns="http://www.w3.org/2000/svg" width="17.338" height="19.12" viewBox="0 0 17.338 19.12">
  <path id="Shape" d="M5.944,16.457v-.484H2.229A2.206,2.206,0,0,1,0,13.795v-.369A2.46,2.46,0,0,1,1.4,11.21a1.209,1.209,0,0,0,.684-.975l.442-4.754a5.962,5.962,0,0,1,1.983-3.9,6.274,6.274,0,0,1,8.318,0,5.966,5.966,0,0,1,1.983,3.9l.442,4.754a1.2,1.2,0,0,0,.679.973,2.463,2.463,0,0,1,1.406,2.218v.369a2.207,2.207,0,0,1-2.23,2.179H11.394v.484a2.725,2.725,0,0,1-5.449,0Zm1.486,0a1.239,1.239,0,0,0,2.477,0v-.484H7.43ZM4.006,5.613l-.442,4.754a2.648,2.648,0,0,1-1.495,2.14,1.019,1.019,0,0,0-.583.919v.369a.735.735,0,0,0,.743.727h12.88a.736.736,0,0,0,.744-.727v-.369a1.018,1.018,0,0,0-.58-.918,2.652,2.652,0,0,1-1.5-2.141l-.442-4.754a4.618,4.618,0,0,0-4.662-4.16A4.618,4.618,0,0,0,4.006,5.613Z" fill="#fff"/>
</svg>
