<svg xmlns="http://www.w3.org/2000/svg" width="50.608" height="27.004" viewBox="0 0 50.608 27.004">
  <path id="Path_80587" data-name="Path 80587" d="M27,50.6a.56.56,0,0,1-.085.007.566.566,0,0,1-.082-.005H.168a.592.592,0,0,1-.082.005A.579.579,0,0,1,0,50.6c.115-.863.195-1.589.246-2.076.367-3.532.446-6.551.445-7.993q0-.927,0-1.855h0V5.327S7.47,0,13.875,0,26.313,5.327,26.313,5.327v33.35h0q0,.927,0,1.855c0,1.441.078,4.461.445,7.993C26.809,49.012,26.889,49.738,27,50.6Z" transform="translate(0 27.004) rotate(-90)" fill="#1498ad"/>
</svg>
