<svg xmlns="http://www.w3.org/2000/svg" width="24.725" height="31.444" viewBox="0 0 24.725 31.444">
  <g id="Group_42466" data-name="Group 42466" transform="translate(-302.569 -137)">
    <g id="Group_42435" data-name="Group 42435" transform="translate(319.844 144.88)">
      <g id="Group_42434" data-name="Group 42434" transform="translate(0 0)">
        <path id="Path_80063" data-name="Path 80063" d="M307.805,273.171a.361.361,0,0,0,.549-.4l-.152-.531a7.335,7.335,0,0,1-.544.831Z" transform="translate(-307.658 -266.904)" fill="#e7e7e7"/>
        <path id="Path_80064" data-name="Path 80064" d="M333.911,165.472l-.906-.033a7.317,7.317,0,0,1,.2,1.393l.913-.715A.361.361,0,0,0,333.911,165.472Z" transform="translate(-331.738 -165.439)" fill="#e7e7e7"/>
      </g>
    </g>
    <g id="Group_42465" data-name="Group 42465" transform="translate(302.569 137)">
      <g id="badge" transform="translate(0)">
        <g id="Group_42428" data-name="Group 42428" transform="translate(0 0)">
          <g id="Group_42424" data-name="Group 42424" transform="translate(2.068 15.94)">
            <path id="Path_80047" data-name="Path 80047" d="M92.605,271.594l4.382-10.578-3.519-1.458L88.42,271.745a.657.657,0,0,0,.8.88l2.863-.878a.631.631,0,0,1,.251-.026Z" transform="translate(-88.368 -259.558)" fill="#fff"/>
            <path id="Path_80048" data-name="Path 80048" d="M157.392,282.027l-4.467,10.783a.657.657,0,0,1,.522.346l1.4,2.645a.657.657,0,0,0,1.188-.056l5.048-12.187Z" transform="translate(-148.96 -280.647)" fill="#f5f5f5"/>
            <path id="Path_80049" data-name="Path 80049" d="M229.979,281.364l-3.793,1.571,5.048,12.187a.657.657,0,0,0,1.188.056l1.4-2.645a.656.656,0,0,1,.17-.205l.343-.434Z" transform="translate(-217.722 -280.025)" fill="#f5f5f5"/>
            <path id="Path_80050" data-name="Path 80050" d="M289.37,271.744l-5.048-12.187-3.682,1.525,4.465,10.779a.657.657,0,0,1,.6-.115l2.863.879A.657.657,0,0,0,289.37,271.744Z" transform="translate(-268.832 -259.557)" fill="#fff"/>
          </g>
          <g id="Group_42427" data-name="Group 42427" transform="translate(0 0)">
            <path id="Path_80051" data-name="Path 80051" d="M68.332.442A2.04,2.04,0,0,0,70.2.792a2.039,2.039,0,0,1,2.364.916,2.04,2.04,0,0,0,1.62,1,2.04,2.04,0,0,1,1.874,1.708,2.04,2.04,0,0,0,1.148,1.52,2.04,2.04,0,0,1,1.13,2.269,2.04,2.04,0,0,0,.521,1.832,2.04,2.04,0,0,1,.234,2.524,2.039,2.039,0,0,0-.176,1.9,2.04,2.04,0,0,1-.694,2.439,2.04,2.04,0,0,0-.849,1.705,2.04,2.04,0,0,1-1.528,2.023,2.04,2.04,0,0,0-1.408,1.283,2.04,2.04,0,0,1-2.156,1.335,2.04,2.04,0,0,0-1.776.688,2.04,2.04,0,0,1-2.492.466,2.04,2.04,0,0,0-1.9,0,2.04,2.04,0,0,1-2.492-.466,2.04,2.04,0,0,0-1.776-.688,2.04,2.04,0,0,1-2.156-1.335,2.04,2.04,0,0,0-1.408-1.283,2.04,2.04,0,0,1-1.528-2.023A2.04,2.04,0,0,0,55.9,16.9a2.039,2.039,0,0,1-.694-2.439,2.039,2.039,0,0,0-.176-1.9,2.04,2.04,0,0,1,.234-2.524,2.04,2.04,0,0,0,.521-1.832,2.04,2.04,0,0,1,1.13-2.269,2.04,2.04,0,0,0,1.148-1.52A2.04,2.04,0,0,1,59.94,2.711a2.04,2.04,0,0,0,1.62-1A2.04,2.04,0,0,1,63.924.792,2.039,2.039,0,0,0,65.8.442a2.04,2.04,0,0,1,2.535,0Z" transform="translate(-54.701 0)" fill="#fff"/>
          </g>
        </g>
      </g>
      <g id="Group_42458" data-name="Group 42458" transform="translate(6.777 7.49)">
        <path id="Path_80062" data-name="Path 80062" d="M159.684,105.883l2.766,1.862a.386.386,0,0,0,.334.052q.147-.2.282-.407a.419.419,0,0,0-.015-.081l-.916-3.206a.4.4,0,0,1,.136-.42l2.112-1.653a8.411,8.411,0,0,0-.18-1.125l-2.868-.1a.4.4,0,0,1-.357-.26l-1.143-3.132a.4.4,0,0,0-.743,0l-1.143,3.132a.4.4,0,0,1-.357.26l-3.332.12a.4.4,0,0,0-.23.706l2.625,2.055a.4.4,0,0,1,.136.42l-.916,3.206a.4.4,0,0,0,.6.437l2.766-1.862A.4.4,0,0,1,159.684,105.883Z" transform="translate(-153.877 -97.15)" fill="#00a9ca"/>
        <g id="Group_42434-2" data-name="Group 42434" transform="translate(8.411 3.735)">
          <path id="Path_80063-2" data-name="Path 80063" d="M307.819,273.259a.4.4,0,0,0,.6-.437l-.166-.581a8.025,8.025,0,0,1-.6.909Z" transform="translate(-307.658 -266.399)" fill="#00a9ca"/>
          <path id="Path_80064-2" data-name="Path 80064" d="M334,165.475l-.992-.036a8.008,8.008,0,0,1,.222,1.524l1-.782A.4.4,0,0,0,334,165.475Z" transform="translate(-331.619 -165.439)" fill="#00a9ca"/>
        </g>
      </g>
    </g>
  </g>
</svg>
