<svg xmlns="http://www.w3.org/2000/svg" width="109" height="109" viewBox="0 0 109 109">
  <g id="Group_45635" data-name="Group 45635" transform="translate(-126 -366)">
    <g id="Group_45632" data-name="Group 45632" transform="translate(126 366)">
      <circle id="Ellipse_1925" data-name="Ellipse 1925" cx="50.5" cy="50.5" r="50.5" transform="translate(4 4)" fill="#00ca80"/>
      <g id="Ellipse_1926" data-name="Ellipse 1926" fill="none" stroke="#00ca80" stroke-width="1" stroke-dasharray="25">
        <circle cx="54.5" cy="54.5" r="54.5" stroke="none"/>
        <circle cx="54.5" cy="54.5" r="54" fill="none"/>
      </g>
    </g>
    <g id="Group_45634" data-name="Group 45634" transform="translate(155.768 401.726)">
      <g id="Group_45633" data-name="Group 45633" transform="translate(2.148 -4.688)">
        <path id="Path_81002" data-name="Path 81002" d="M1864.638,249.637c7.68-7.727,14.712-15.016,22.043-21.992a7.832,7.832,0,0,1,5.974-1.939c3.826.77,4.515,5.485,1.445,8.637-5.385,5.525-10.891,10.932-16.349,16.389-2.9,2.9-5.764,5.833-8.707,8.683-2.978,2.884-5.589,2.955-8.489.131q-6.735-6.564-13.3-13.3c-2.567-2.638-2.637-5.514-.412-7.658,2.133-2.056,5.108-1.864,7.678.68C1857.846,242.56,1861.065,245.964,1864.638,249.637Z" transform="translate(-1847.979 -218.602)" fill="#fff" stroke="#fff" stroke-width="0.5"/>
      </g>
    </g>
  </g>
</svg>
