<svg xmlns="http://www.w3.org/2000/svg" width="109" height="109" viewBox="0 0 109 109">
  <g id="Group_45635" data-name="Group 45635" transform="translate(-126 -366)">
    <g id="Group_45632" data-name="Group 45632" transform="translate(126 366)">
      <circle id="Ellipse_1925" data-name="Ellipse 1925" cx="50.5" cy="50.5" r="50.5" transform="translate(4 4)" fill="#00a9ca"/>
      <g id="Ellipse_1926" data-name="Ellipse 1926" fill="none" stroke="#00a9ca" stroke-width="1" stroke-dasharray="25">
        <circle cx="54.5" cy="54.5" r="54.5" stroke="none"/>
        <circle cx="54.5" cy="54.5" r="54" fill="none"/>
      </g>
    </g>
    <g id="Group_45634" data-name="Group 45634" transform="translate(155.768 401.726)">
      <g id="Group_45330" data-name="Group 45330" transform="translate(8.885)">
        <path id="Path_80542" data-name="Path 80542" d="M1658.068,106.188a2.811,2.811,0,0,1,.739-2.444,2.227,2.227,0,0,1,1.452-.611,2.267,2.267,0,0,1,1.941.917,3.132,3.132,0,0,1,.459,2.1h2.36a2.7,2.7,0,0,1,.821-2.49,2.239,2.239,0,0,1,1.529-.527,1.977,1.977,0,0,1,1.793,1,11.74,11.74,0,0,1,.616,2.042h2.168a2.747,2.747,0,0,1,.794-2.481,2.213,2.213,0,0,1,1.471-.561,2.269,2.269,0,0,1,1.883.946,3.212,3.212,0,0,1,.439,2.07h2.359c0-.274-.011-.539,0-.8a2.277,2.277,0,0,1,2.246-2.216,2.3,2.3,0,0,1,2.329,2.189c.017.281,0,.564,0,.868.207.052.39.1.573.145a4.537,4.537,0,0,1,3.457,4.364q.025,10.692,0,21.384a4.569,4.569,0,0,1-4.734,4.518q-11.991.008-23.983-.016a5.088,5.088,0,0,1-2.031-.418,4.405,4.405,0,0,1-2.716-4.3q-.013-9.708,0-19.415a16.391,16.391,0,0,1,.067-2.32,4.5,4.5,0,0,1,3.783-3.878A1.942,1.942,0,0,0,1658.068,106.188Zm-2.785,7.755v.47q0,8.679,0,17.358a3.355,3.355,0,0,0,3.587,3.575q11.9,0,23.8,0a3.355,3.355,0,0,0,3.579-3.584q0-8.656,0-17.313v-.506Zm-.039-1.311h31c0-.747.043-1.465-.011-2.175a3.163,3.163,0,0,0-1.208-2.264,2.935,2.935,0,0,0-1.552-.687c0,.276.009.514,0,.75a2.29,2.29,0,0,1-2.3,2.216,2.263,2.263,0,0,1-2.281-2.219c-.012-.263,0-.527,0-.8h-2.367c0,.233,0,.438,0,.644a2.277,2.277,0,0,1-2.312,2.374,2.3,2.3,0,0,1-2.271-2.38c0-.216,0-.431,0-.665-.759,0-1.444,0-2.129,0a1.88,1.88,0,0,0-.215.03c0,.277.011.542,0,.805a2.289,2.289,0,0,1-2.3,2.208,2.265,2.265,0,0,1-2.27-2.232c-.01-.262,0-.525,0-.813h-2.368c0,.3.007.539,0,.774a2.267,2.267,0,0,1-2.322,2.271,2.294,2.294,0,0,1-2.262-2.3c-.005-.216,0-.433,0-.655a3.155,3.155,0,0,0-2.679,2.535A23.372,23.372,0,0,0,1655.244,112.632Zm6.152-5.778c0-.476.015-.952,0-1.427a1.033,1.033,0,1,0-2.066-.011q-.031,1.382,0,2.765a1.033,1.033,0,0,0,2.066.01C1661.41,107.746,1661.4,107.3,1661.4,106.854Zm4.877-.048h0v1.3c0,.03,0,.06,0,.089a1.032,1.032,0,0,0,2.064.018q.037-1.408,0-2.818a1.03,1.03,0,0,0-2.06.026C1666.258,105.88,1666.272,106.343,1666.272,106.805Zm8.994,0h0q0-.649,0-1.3c0-.03,0-.06,0-.089a1.032,1.032,0,0,0-2.064-.02q-.037,1.408,0,2.818a1.03,1.03,0,0,0,2.06-.024C1675.28,107.727,1675.266,107.264,1675.266,106.8Zm6.954-.016c0-.431.01-.862,0-1.293a1.059,1.059,0,0,0-1.04-1.109,1.03,1.03,0,0,0-1.034,1.1q-.021,1.315,0,2.631a1.02,1.02,0,0,0,1.028,1.1,1.036,1.036,0,0,0,1.046-1.094C1682.23,107.678,1682.22,107.231,1682.22,106.785Z" transform="translate(-1654.024 -103.128)" fill="#fff" stroke="#fff" stroke-width="0.5"/>
        <path id="Path_80543" data-name="Path 80543" d="M1698.02,222.473c0,.432.013.864,0,1.295a1.614,1.614,0,0,1-1.559,1.592c-.892.033-1.787.03-2.679,0a1.63,1.63,0,0,1-1.593-1.655q-.018-1.272,0-2.545a1.6,1.6,0,0,1,1.564-1.626c.907-.035,1.817-.035,2.724,0a1.589,1.589,0,0,1,1.544,1.6C1698.032,221.58,1698.02,222.027,1698.02,222.473Zm-4.584-.035c0,.387,0,.773,0,1.16a.45.45,0,0,0,.514.52h2.321c.323,0,.5-.148.5-.485,0-.788,0-1.576,0-2.365a.432.432,0,0,0-.49-.494c-.789,0-1.577,0-2.365,0a.432.432,0,0,0-.482.5C1693.44,221.665,1693.435,222.051,1693.435,222.438Z" transform="translate(-1687.615 -205.597)" fill="#fff" stroke="#fff" stroke-width="0.5"/>
        <path id="Path_80544" data-name="Path 80544" d="M1698,294.612c0,.432.012.864,0,1.295a1.6,1.6,0,0,1-1.584,1.607q-1.339.033-2.68,0a1.6,1.6,0,0,1-1.566-1.577c-.02-.893-.021-1.787,0-2.679a1.6,1.6,0,0,1,1.538-1.564c.922-.03,1.847-.032,2.769,0a1.6,1.6,0,0,1,1.516,1.535c.022.46,0,.923,0,1.384Zm-2.916,1.657c.372,0,.744-.008,1.116,0s.556-.135.552-.521c-.008-.773,0-1.546,0-2.32a.431.431,0,0,0-.486-.5H1693.9c-.332,0-.486.17-.485.5,0,.788,0,1.576,0,2.364a.414.414,0,0,0,.464.47C1694.283,296.269,1694.684,296.267,1695.086,296.269Z" transform="translate(-1687.597 -269.13)" fill="#fff" stroke="#fff" stroke-width="0.5"/>
        <path id="Path_80545" data-name="Path 80545" d="M1849.977,297.53c-.447,0-.894.015-1.34,0a1.6,1.6,0,0,1-1.571-1.571q-.034-1.339,0-2.679a1.6,1.6,0,0,1,1.569-1.577q1.339-.037,2.68,0a1.619,1.619,0,0,1,1.579,1.619q.025,1.295,0,2.59a1.619,1.619,0,0,1-1.621,1.62c-.431.014-.863,0-1.295,0Zm-1.667-2.913c0,.387,0,.773,0,1.16,0,.326.136.5.476.5q1.182,0,2.365,0c.329,0,.5-.151.5-.486,0-.788,0-1.576,0-2.365,0-.334-.173-.486-.5-.485-.788,0-1.577,0-2.365,0a.415.415,0,0,0-.468.467Q1848.31,294.015,1848.31,294.617Z" transform="translate(-1823.974 -269.143)" fill="#fff" stroke="#fff" stroke-width="0.5"/>
        <path id="Path_80546" data-name="Path 80546" d="M1772.424,219.568c.4,0,.8-.012,1.206,0a1.64,1.64,0,0,1,1.695,1.65c.029.848.03,1.7,0,2.545a1.649,1.649,0,0,1-1.7,1.651q-1.228.019-2.457,0a1.65,1.65,0,0,1-1.695-1.656c-.027-.848-.028-1.7,0-2.545a1.635,1.635,0,0,1,1.655-1.643C1771.56,219.554,1771.992,219.569,1772.424,219.568Zm-.042,4.6c.387,0,.774,0,1.161,0a.461.461,0,0,0,.534-.51c0-.774,0-1.548,0-2.322a.458.458,0,0,0-.525-.516c-.774,0-1.548,0-2.322,0-.324,0-.509.152-.511.482q-.008,1.183,0,2.366c0,.35.2.505.544.5C1771.638,224.161,1772.01,224.166,1772.382,224.166Z" transform="translate(-1755.654 -205.645)" fill="#fff" stroke="#fff" stroke-width="0.5"/>
        <path id="Path_80547" data-name="Path 80547" d="M1772.384,297.565c-.4,0-.8.007-1.206,0a1.637,1.637,0,0,1-1.7-1.636c-.029-.847-.027-1.7,0-2.545a1.641,1.641,0,0,1,1.69-1.655q1.228-.018,2.457,0a1.639,1.639,0,0,1,1.7,1.642c.031.847.029,1.7,0,2.545a1.635,1.635,0,0,1-1.69,1.651C1773.218,297.573,1772.8,297.565,1772.384,297.565Zm0-1.253c.387,0,.774-.007,1.161,0,.352.009.533-.152.534-.5q0-1.161,0-2.321a.459.459,0,0,0-.524-.517c-.774,0-1.548,0-2.322,0a.444.444,0,0,0-.509.484c-.008.788-.006,1.577,0,2.366a.436.436,0,0,0,.5.488C1771.609,296.308,1772,296.312,1772.383,296.312Z" transform="translate(-1755.654 -269.174)" fill="#fff" stroke="#fff" stroke-width="0.5"/>
        <path id="Path_80548" data-name="Path 80548" d="M1847.645,228.6c.95-.955,1.819-1.857,2.726-2.719a.969.969,0,0,1,.739-.24c.473.1.559.678.179,1.068-.666.683-1.347,1.352-2.022,2.026-.358.358-.712.721-1.076,1.074a.653.653,0,0,1-1.05.016q-.833-.812-1.645-1.645a.618.618,0,0,1-.051-.947.642.642,0,0,1,.949.084C1846.805,227.721,1847.2,228.142,1847.645,228.6Z" transform="translate(-1822.388 -210.984)" fill="#fff" stroke="#fff" stroke-width="0.5"/>
      </g>
      <g id="Group_45633" data-name="Group 45633" transform="translate(0 22.928)">
        <circle id="Ellipse_1927" data-name="Ellipse 1927" cx="9.969" cy="9.969" r="9.969" fill="#fff"/>
        <path id="Path_81002" data-name="Path 81002" d="M1849.525,230.925c1.694-1.7,3.246-3.313,4.863-4.852a1.728,1.728,0,0,1,1.318-.428c.844.17,1,1.21.319,1.905-1.188,1.219-2.4,2.412-3.607,3.616-.64.639-1.271,1.287-1.921,1.916a1.165,1.165,0,0,1-1.873.029q-1.486-1.448-2.934-2.934a1.1,1.1,0,0,1-.091-1.69,1.145,1.145,0,0,1,1.694.15C1848.027,229.363,1848.737,230.114,1849.525,230.925Z" transform="translate(-1840.848 -218.554)" fill="#00a9ca" stroke="#00a9ca" stroke-width="0.5"/>
      </g>
    </g>
  </g>
</svg>
