<svg xmlns="http://www.w3.org/2000/svg" width="16.601" height="16.593" viewBox="0 0 16.601 16.593">
  <g id="Group_45330" data-name="Group 45330" transform="translate(-1653.775 -102.878)">
    <path id="Path_80542" data-name="Path 80542" d="M1655.968,104.6a1.351,1.351,0,0,1,.355-1.175,1.07,1.07,0,0,1,.7-.294,1.09,1.09,0,0,1,.933.441,1.5,1.5,0,0,1,.22,1.009h1.135a1.3,1.3,0,0,1,.395-1.2,1.076,1.076,0,0,1,.735-.253.951.951,0,0,1,.862.48,5.65,5.65,0,0,1,.3.982h1.042a1.321,1.321,0,0,1,.382-1.193,1.064,1.064,0,0,1,.707-.27,1.091,1.091,0,0,1,.905.455,1.544,1.544,0,0,1,.211,1h1.134c0-.132-.005-.259,0-.386a1.1,1.1,0,0,1,1.08-1.066,1.108,1.108,0,0,1,1.12,1.052c.008.135,0,.271,0,.418l.276.07a2.181,2.181,0,0,1,1.662,2.1q.012,5.141,0,10.282a2.2,2.2,0,0,1-2.276,2.172q-5.765,0-11.531-.008a2.446,2.446,0,0,1-.976-.2,2.118,2.118,0,0,1-1.306-2.068q-.007-4.668,0-9.335a7.859,7.859,0,0,1,.032-1.116,2.161,2.161,0,0,1,1.819-1.865A.933.933,0,0,0,1655.968,104.6Zm-1.339,3.729v.226q0,4.173,0,8.346a1.613,1.613,0,0,0,1.725,1.719H1667.8a1.613,1.613,0,0,0,1.721-1.723q0-4.162,0-8.324v-.243Zm-.019-.63h14.9c0-.359.021-.7-.005-1.046a1.521,1.521,0,0,0-.581-1.089,1.411,1.411,0,0,0-.746-.33c0,.133,0,.247,0,.361a1.1,1.1,0,0,1-1.1,1.065,1.088,1.088,0,0,1-1.1-1.067c-.006-.127,0-.254,0-.384h-1.138c0,.112,0,.211,0,.309a1.1,1.1,0,0,1-1.112,1.141,1.106,1.106,0,0,1-1.092-1.144c0-.1,0-.207,0-.32h-1.023a.9.9,0,0,0-.1.014c0,.133.005.26,0,.387a1.1,1.1,0,0,1-1.108,1.062,1.089,1.089,0,0,1-1.091-1.073c0-.126,0-.252,0-.391h-1.139c0,.145,0,.259,0,.372a1.09,1.09,0,0,1-1.116,1.092,1.1,1.1,0,0,1-1.087-1.1c0-.1,0-.208,0-.315a1.517,1.517,0,0,0-1.288,1.219A11.254,11.254,0,0,0,1654.611,107.7Zm2.958-2.778c0-.229.007-.458,0-.686a.5.5,0,1,0-.994-.005q-.015.664,0,1.329a.5.5,0,0,0,.994,0C1657.575,105.349,1657.568,105.134,1657.568,104.92Zm2.345-.023h0v.624c0,.014,0,.029,0,.043a.491.491,0,0,0,.491.493.487.487,0,0,0,.5-.484q.018-.677,0-1.355a.5.5,0,0,0-.99.013C1659.906,104.452,1659.913,104.674,1659.913,104.9Zm4.324,0h0q0-.312,0-.624c0-.014,0-.029,0-.043a.5.5,0,0,0-.992-.01q-.018.677,0,1.355a.5.5,0,0,0,.991-.012C1664.244,105.339,1664.238,105.117,1664.238,104.895Zm3.344-.008c0-.207,0-.415,0-.622a.509.509,0,0,0-.5-.533.5.5,0,0,0-.5.529q-.01.632,0,1.265a.49.49,0,0,0,.494.53.5.5,0,0,0,.5-.526C1667.586,105.316,1667.581,105.1,1667.581,104.887Z" stroke="#161617" stroke-width="0.5"/>
    <path id="Path_80543" data-name="Path 80543" d="M1694.985,220.935c0,.208.006.415,0,.623a.776.776,0,0,1-.75.765c-.429.016-.859.015-1.288,0a.784.784,0,0,1-.766-.8q-.009-.612,0-1.224a.767.767,0,0,1,.752-.782c.436-.017.874-.017,1.31,0a.764.764,0,0,1,.742.768C1694.992,220.5,1694.985,220.72,1694.985,220.935Zm-2.2-.017c0,.186,0,.372,0,.558a.216.216,0,0,0,.247.25h1.116c.156,0,.241-.071.241-.233,0-.379,0-.758,0-1.137a.208.208,0,0,0-.235-.238c-.379,0-.758,0-1.137,0a.208.208,0,0,0-.232.242C1692.783,220.546,1692.781,220.732,1692.781,220.918Z" transform="translate(-35.959 -109.692)" stroke="#161617" stroke-width="0.5"/>
    <path id="Path_80544" data-name="Path 80544" d="M1694.966,293.083c0,.208.006.415,0,.623a.77.77,0,0,1-.761.772q-.644.016-1.288,0a.768.768,0,0,1-.753-.758c-.01-.429-.01-.859,0-1.288a.77.77,0,0,1,.74-.752c.443-.014.888-.015,1.331,0a.767.767,0,0,1,.729.738c.011.221,0,.444,0,.665Zm-1.4.8c.179,0,.358,0,.536,0s.268-.065.266-.251c0-.372,0-.744,0-1.115a.207.207,0,0,0-.234-.239h-1.137a.208.208,0,0,0-.233.24c0,.379,0,.758,0,1.137a.2.2,0,0,0,.223.226Z" transform="translate(-35.939 -177.703)" stroke="#161617" stroke-width="0.5"/>
    <path id="Path_80545" data-name="Path 80545" d="M1848.456,294.494c-.215,0-.43.007-.644,0a.767.767,0,0,1-.755-.755q-.016-.644,0-1.288a.769.769,0,0,1,.754-.758q.644-.018,1.288,0a.778.778,0,0,1,.759.779q.012.622,0,1.245a.779.779,0,0,1-.78.779c-.207.007-.415,0-.623,0Zm-.8-1.4c0,.186,0,.372,0,.558,0,.157.066.242.229.242q.569,0,1.137,0c.158,0,.239-.072.238-.234,0-.379,0-.758,0-1.137,0-.161-.083-.234-.24-.233h-1.137a.2.2,0,0,0-.225.224Q1847.655,292.8,1847.655,293.094Z" transform="translate(-181.93 -177.717)" stroke="#161617" stroke-width="0.5"/>
    <path id="Path_80546" data-name="Path 80546" d="M1770.881,219.566c.193,0,.387-.006.58,0a.789.789,0,0,1,.815.793c.014.408.014.816,0,1.224a.793.793,0,0,1-.817.794q-.591.009-1.181,0a.794.794,0,0,1-.815-.8c-.013-.408-.013-.816,0-1.224a.786.786,0,0,1,.8-.79C1770.466,219.559,1770.674,219.566,1770.881,219.566Zm-.02,2.211c.186,0,.372,0,.558,0a.222.222,0,0,0,.257-.245c0-.372,0-.744,0-1.116a.22.22,0,0,0-.252-.248c-.372,0-.744,0-1.116,0-.156,0-.245.073-.246.232q0,.569,0,1.138c0,.168.1.243.261.24S1770.682,221.776,1770.862,221.776Z" transform="translate(-108.795 -109.743)" stroke="#161617" stroke-width="0.5"/>
    <path id="Path_80547" data-name="Path 80547" d="M1770.862,294.53c-.193,0-.387,0-.58,0a.787.787,0,0,1-.819-.787c-.014-.407-.013-.816,0-1.224a.789.789,0,0,1,.813-.8q.591-.009,1.181,0a.788.788,0,0,1,.819.789c.015.407.014.816,0,1.224a.786.786,0,0,1-.813.794C1771.263,294.533,1771.063,294.529,1770.862,294.53Zm0-.6c.186,0,.372,0,.558,0,.169,0,.256-.073.257-.241q0-.558,0-1.116a.221.221,0,0,0-.252-.249c-.372,0-.744,0-1.116,0a.213.213,0,0,0-.245.233c0,.379,0,.758,0,1.138a.21.21,0,0,0,.241.235C1770.489,293.925,1770.676,293.927,1770.862,293.927Z" transform="translate(-108.794 -177.75)" stroke="#161617" stroke-width="0.5"/>
    <path id="Path_80548" data-name="Path 80548" d="M1846.4,227.055c.457-.459.875-.893,1.31-1.307a.466.466,0,0,1,.355-.115c.228.046.269.326.086.513-.32.328-.648.65-.972.974-.172.172-.343.347-.518.516a.314.314,0,0,1-.5.008q-.4-.39-.791-.791a.3.3,0,0,1-.025-.455.309.309,0,0,1,.457.04C1846,226.635,1846.187,226.837,1846.4,227.055Z" transform="translate(-180.232 -115.459)" stroke="#161617" stroke-width="0.5"/>
  </g>
</svg>
