<svg xmlns="http://www.w3.org/2000/svg" width="17" height="17" viewBox="0 0 17 17">
  <path id="Shape" d="M0,8.5A8.5,8.5,0,1,0,8.5,0,8.51,8.51,0,0,0,0,8.5ZM8.5,1.307a7.164,7.164,0,0,1,4.808,1.848,3.779,3.779,0,0,1-1.24.654c-.1.036-.2.071-.329.114l-.337.113c-1.216.411-1.764.742-2,1.519a1.648,1.648,0,0,0-.048.195,2.073,2.073,0,0,0,.121,1.218,1.849,1.849,0,0,0,.513.694,2.459,2.459,0,0,1,.909,2,2.47,2.47,0,0,1-2.4,2.543A2.443,2.443,0,0,1,6.1,9.662,2.478,2.478,0,0,1,6.975,7.68a1.982,1.982,0,0,0,.5-.606,1.934,1.934,0,0,0,.173-1.34,1.008,1.008,0,0,0-.039-.148C7.4,4.82,6.867,4.492,5.7,4.094l-.388-.132c-.151-.051-.269-.093-.382-.133a3.763,3.763,0,0,1-1.238-.673A7.165,7.165,0,0,1,8.5,1.307Zm3.705,8.355a3.768,3.768,0,0,0-1.358-2.988.581.581,0,0,1-.169-.222.809.809,0,0,1-.037-.459.4.4,0,0,1,.011-.048c.067-.221.355-.4,1.17-.671l.335-.111c.138-.047.248-.085.355-.123A4.92,4.92,0,0,0,14.2,4.116a7.193,7.193,0,1,1-11.4,0,4.949,4.949,0,0,0,1.675.938c.125.046.253.091.414.145l.386.13c.753.258,1.021.422,1.085.651,0-.006,0,.005.006.029a.67.67,0,0,1-.051.453A.789.789,0,0,1,6.11,6.7,3.79,3.79,0,0,0,4.795,9.662,3.749,3.749,0,0,0,8.5,13.512,3.775,3.775,0,0,0,12.205,9.662Z" transform="translate(17 17) rotate(180)" fill="#00a9ca"/>
</svg>
