<svg xmlns="http://www.w3.org/2000/svg" width="18" height="9.002" viewBox="0 0 18 9.002">
  <path id="Fill_918" data-name="Fill 918" d="M3,9a.747.747,0,0,1-.531-.219L.22,6.532A.752.752,0,1,1,1.281,5.467l.969.975V.75a.75.75,0,0,1,1.5,0V6.442l.969-.975A.752.752,0,1,1,5.781,6.532l-2.25,2.25A.747.747,0,0,1,3,9ZM17.25,9h-9a.75.75,0,1,1,0-1.5h9a.75.75,0,0,1,0,1.5Zm-3-3.75h-6a.75.75,0,1,1,0-1.5h6a.75.75,0,1,1,0,1.5Zm0-3.749h-6a.75.75,0,1,1,0-1.5h6a.75.75,0,1,1,0,1.5Z" transform="translate(0 0)" fill="#00a9ca"/>
</svg>
