<svg xmlns="http://www.w3.org/2000/svg" width="18.079" height="16.873" viewBox="0 0 18.079 16.873">
  <path id="Icon_ionic-ios-star" data-name="Icon ionic-ios-star" d="M18.488,8.8H12.946L11.262,3.774a.61.61,0,0,0-1.145,0L8.433,8.8H2.853a.6.6,0,0,0-.6.6.443.443,0,0,0,.011.1.579.579,0,0,0,.252.426l4.555,3.21L5.321,18.223a.6.6,0,0,0,.207.678.583.583,0,0,0,.339.147.739.739,0,0,0,.377-.136l4.446-3.169,4.446,3.169a.706.706,0,0,0,.377.136.541.541,0,0,0,.335-.147.6.6,0,0,0,.207-.678L14.306,13.14,18.823,9.9l.109-.094A.576.576,0,0,0,18.488,8.8Z" transform="translate(-1.65 -2.775)" fill="none" stroke="#3b3b3b" stroke-width="1.2"/>
</svg>
