<svg xmlns="http://www.w3.org/2000/svg" width="256" height="256" viewBox="0 0 256 256">
  <g id="Group_45412" data-name="Group 45412" transform="translate(-46.564 -256.564)">
    <circle id="Ellipse_1886" data-name="Ellipse 1886" cx="128" cy="128" r="128" transform="translate(46.564 256.564)" fill="#1498ad" opacity="0.03"/>
    <path id="Path_80556" data-name="Path 80556" d="M284.263,167.242c-2.625,2.115,14.872-.4,21.706.176.014,0,.026,0,.039.006a68.324,68.324,0,0,0-11.2-.607c11.451-11.539,5.3-36.3-5.238-37.237a6.883,6.883,0,0,0-2.718.241C296.022,133.747,297.422,160.849,284.263,167.242Z" transform="translate(-91.875 197.139)" fill="#003d94" opacity="0.2"/>
    <path id="Path_80557" data-name="Path 80557" d="M144.83,241.979H144.8a1.166,1.166,0,0,1-1.134-1.2c.063-2.337.15-4.7.259-7.033a1.166,1.166,0,0,1,2.329.108c-.108,2.315-.194,4.666-.257,6.988A1.166,1.166,0,0,1,144.83,241.979Z" transform="translate(-16.994 142.128)" fill="#fff"/>
    <path id="Path_80558" data-name="Path 80558" d="M144.834,264.348h-.011a1.166,1.166,0,0,1-1.155-1.176c.011-1.217.029-2.429.053-3.627a1.166,1.166,0,0,1,2.332.046c-.024,1.19-.042,2.393-.052,3.6A1.166,1.166,0,0,1,144.834,264.348Z" transform="translate(-16.996 128.38)" fill="#fff"/>
    <rect id="Rectangle_8953" data-name="Rectangle 8953" width="256" height="256" transform="translate(46.564 256.564)" fill="none"/>
    <path id="Path_80559" data-name="Path 80559" d="M209.8,171.285c6.454-7.987,19.709-3.8,26.988-14.839s1.5-27.808,12.044-26.868,16.69,25.7,5.238,37.237c15.75-.258,24.023,3.041,24.186,10.977s-6.48,8.188-6.48,8.188c10.314,2.261,8.716,14.767-1.634,16.107,6.667,1.324,10.917,11.59-1.371,15.191,5.472,3.081,5.029,12.714-9.678,13.642-11.077.7-44.152,3.575-50.371-4.042C206.662,224.347,207.933,181.475,209.8,171.285Z" transform="translate(-51.145 197.141)" fill="#fff"/>
    <path id="Path_80560" data-name="Path 80560" d="M233.077,231.865c-14.831,0-23.533-1.826-26.6-5.585-1.168-1.431-1.572-10.074-1.2-25.688.261-10.947,1.009-25.271,2.033-30.851a1.159,1.159,0,0,1,.24-.522c3.17-3.924,7.866-5.136,12.408-6.309,5.3-1.369,10.784-2.785,14.513-8.44,2.953-4.472,3.66-10.022,4.284-14.919.82-6.434,1.594-12.511,7.916-12.511.3,0,.606.014.922.042,4.327.384,8.272,4.339,10.553,10.582,2.832,7.75,2.967,18.959-2.858,26.641,15.168.147,22.626,4.119,22.79,12.129.1,4.8-2.058,7.148-4.1,8.293a8.4,8.4,0,0,1,4.591,7.854A9.812,9.812,0,0,1,272.365,201a8.944,8.944,0,0,1,4.056,6.87c.08,1.79-.463,5.944-6.6,8.468a7.03,7.03,0,0,1,1.818,6.433c-1.033,4.512-6.2,7.493-13.817,7.974-.811.051-1.74.115-2.769.184C249.573,231.3,241.286,231.865,233.077,231.865Zm-24.767-7.027c1.791,2.15,7.551,4.695,24.767,4.695,8.13,0,16.37-.557,21.822-.927,1.032-.07,1.964-.133,2.779-.185,6.531-.412,10.9-2.718,11.691-6.167a4.871,4.871,0,0,0-2.512-5.3,1.166,1.166,0,0,1,.244-2.135c4.577-1.341,7.125-3.837,6.99-6.847a6.909,6.909,0,0,0-5.518-6.081,1.166,1.166,0,0,1,.077-2.3c5.031-.651,7.462-4.145,7.591-7.116.112-2.57-1.421-5.679-6.057-6.7a1.166,1.166,0,0,1,.206-2.3c.557-.028,5.494-.458,5.358-7-.087-4.228-2.394-9.849-21.344-9.849q-.814,0-1.657.014h-.019a1.166,1.166,0,0,1-.828-1.987c6.844-6.9,6.9-18.412,4.056-26.194-1.963-5.371-5.166-8.758-8.569-9.06-.248-.022-.488-.033-.715-.033-4.079,0-4.726,3.591-5.6,10.474-.656,5.149-1.4,10.984-4.651,15.908-4.223,6.4-10.414,8-15.877,9.413-4.267,1.1-8.3,2.144-10.991,5.292C207.613,181.645,206.686,221.682,208.31,224.838Z" transform="translate(-49.799 198.475)" fill="#00a9ca"/>
    <path id="Path_80561" data-name="Path 80561" d="M272.268,229.453s6.645-.25,6.48-8.188c-.115-5.6-4.279-8.893-12.26-10.253,6.263,1.4,8.429,13.119-1.889,16.974,6.063.51,10.144,12.568-1.749,13.992,6.646,1.749,8.4,11.777-2.565,13.526,5.13.933,5.6,8.862-1.866,10.429s-39.644,1-48.51-1.632l-1.328,3.251a7.091,7.091,0,0,0,.633,2.8c6.218,7.618,35.913,5.092,50.254,3.926,14.687-1.194,15.266-10.444,9.794-13.526,12.287-3.6,8.038-13.867,1.371-15.191C280.984,244.22,282.582,231.715,272.268,229.453Z" transform="translate(-51.633 153.667)" fill="#003d94" opacity="0.2"/>
    <path id="Path_80562" data-name="Path 80562" d="M173.18,268.537c1.526,8.766-23.082,7.614-29.833,2.735s-5.36-43.025-4.391-56.5c.721-10.028,34.292-10.52,33.747-2.293C171.8,226.159,170.421,252.647,173.18,268.537Z" transform="translate(-14.045 155.947)" fill="#00a9ca"/>
    <path id="Path_80563" data-name="Path 80563" d="M158.827,274.871c-7.051,0-14.246-1.64-17.495-3.988-1.2-.869-4.862-3.515-5.573-25.935-.354-11.187.156-24.011.7-31.593.451-6.262,10.908-9.115,20.433-9.115,6.817,0,12.209,1.413,14.425,3.78a4.215,4.215,0,0,1,1.216,3.2C170.846,236.738,171,255.505,173,267a4.924,4.924,0,0,1-1.089,4.135C169.178,274.386,162.54,274.871,158.827,274.871Zm-1.932-68.3c-8.655,0-17.794,2.6-18.107,6.95-1.392,19.347-1.561,51.515,3.911,55.471,2.843,2.054,9.626,3.546,16.128,3.546,5.546,0,9.77-1.085,11.3-2.9a2.561,2.561,0,0,0,.576-2.234c-2.028-11.681-2.194-30.635-.492-56.335a1.869,1.869,0,0,0-.591-1.455C167.888,207.766,162.894,206.572,156.895,206.572Z" transform="translate(-12.713 157.281)" fill="#00a9ca"/>
    <path id="Path_80564" data-name="Path 80564" d="M148.878,217.773a1.166,1.166,0,0,1-.684-2.111c2.29-1.654,7.47-3.422,15.141-3.422a1.166,1.166,0,1,1,0,2.332c-7.123,0-11.872,1.606-13.775,2.98A1.161,1.161,0,0,1,148.878,217.773Z" transform="translate(-19.153 153.012)" fill="#fff"/>
    <path id="Path_80565" data-name="Path 80565" d="M174.955,322.2c-.284-1.636-.522-3.387-.723-5.222-.167-.479-.339-.965-.52-1.463-2.014,1.79-6.165,2.953-10.846,3.5a6.735,6.735,0,1,0-8.667.323c-5.586-.224-10.578-1.293-12.358-3.2l-.378-.132c.8,4.441,1.979,7.715,3.658,8.93C151.873,329.815,176.48,330.967,174.955,322.2Z" transform="translate(-15.819 102.283)" fill="#003d94" opacity="0.2"/>
    <path id="Path_80566" data-name="Path 80566" d="M173.328,305.682a6.731,6.731,0,1,1-6.413-7.031A6.727,6.727,0,0,1,173.328,305.682Z" transform="translate(-25.642 106.907)" fill="#fff"/>
    <path id="Path_80567" data-name="Path 80567" d="M173.328,305.682a6.731,6.731,0,1,1-6.413-7.031A6.727,6.727,0,0,1,173.328,305.682Z" transform="translate(-25.642 106.907)" fill="#00a9ca"/>
    <path id="Path_80568" data-name="Path 80568" d="M165.28,311.935q-.187,0-.374-.009a7.885,7.885,0,1,1,.374.009Zm-.012-13.46a5.557,5.557,0,1,0,.258.006C165.441,298.476,165.355,298.474,165.268,298.474Z" transform="translate(-24.308 108.242)" fill="#fff"/>
    <path id="Path_80569" data-name="Path 80569" d="M174.028,95.076c-8.476,2.639-10.616,4.779-13.255,13.255-2.639-8.476-4.779-10.616-13.255-13.255,8.476-2.639,10.616-4.779,13.255-13.255C163.412,90.3,165.552,92.437,174.028,95.076Z" transform="translate(-19.05 222.604)" fill="#fff"/>
    <path id="Path_80570" data-name="Path 80570" d="M159.439,108.163h0a1.167,1.167,0,0,1-1.113-.819c-2.521-8.1-4.389-9.966-12.488-12.489a1.166,1.166,0,0,1,0-2.227c8.1-2.521,9.967-4.389,12.488-12.488a1.166,1.166,0,0,1,2.227,0c2.522,8.1,4.39,9.967,12.489,12.488a1.166,1.166,0,0,1,0,2.227c-8.1,2.522-9.967,4.39-12.489,12.489A1.166,1.166,0,0,1,159.439,108.163Zm-9.67-14.421c5.26,2.036,7.634,4.412,9.67,9.671,2.037-5.26,4.412-7.635,9.671-9.671-5.26-2.036-7.634-4.411-9.671-9.671C157.4,89.331,155.028,91.706,149.768,93.742Z" transform="translate(-17.716 223.938)" fill="#00a9ca"/>
    <path id="Path_80571" data-name="Path 80571" d="M402.2,166.074c-8.476,2.639-10.616,4.779-13.255,13.255-2.639-8.476-4.779-10.616-13.255-13.255,8.476-2.639,10.616-4.779,13.255-13.255C391.58,161.3,393.719,163.435,402.2,166.074Z" transform="translate(-140.801 184.719)" fill="#fff"/>
    <path id="Path_80572" data-name="Path 80572" d="M387.606,179.161h0a1.166,1.166,0,0,1-1.113-.819c-2.522-8.1-4.389-9.966-12.489-12.489a1.166,1.166,0,0,1,0-2.227c8.1-2.521,9.966-4.389,12.489-12.488a1.166,1.166,0,0,1,2.226,0c2.522,8.1,4.39,9.967,12.489,12.488a1.166,1.166,0,0,1,0,2.227c-8.1,2.522-9.966,4.39-12.489,12.489A1.166,1.166,0,0,1,387.606,179.161Zm-9.671-14.421c5.26,2.036,7.635,4.412,9.671,9.671,2.037-5.26,4.411-7.635,9.672-9.671-5.26-2.036-7.635-4.411-9.672-9.671C385.57,160.329,383.2,162.7,377.935,164.74Z" transform="translate(-139.467 186.053)" fill="#00a9ca" opacity="0.5"/>
    <path id="Path_80573" data-name="Path 80573" d="M399.148,279.649c-4.987,1.553-6.246,2.813-7.8,7.8-1.553-4.988-2.812-6.247-7.8-7.8,4.987-1.553,6.246-2.812,7.8-7.8C392.9,276.837,394.161,278.1,399.148,279.649Z" transform="translate(-144.997 121.204)" fill="#fff"/>
    <path id="Path_80574" data-name="Path 80574" d="M390.014,287.282h0a1.165,1.165,0,0,1-1.113-.819c-1.436-4.612-2.422-5.6-7.033-7.034a1.166,1.166,0,0,1,0-2.227c4.611-1.436,5.6-2.422,7.033-7.033a1.166,1.166,0,0,1,2.226,0c1.436,4.611,2.422,5.6,7.033,7.033a1.166,1.166,0,0,1,0,2.227c-4.611,1.436-5.6,2.422-7.033,7.034A1.166,1.166,0,0,1,390.014,287.282Zm-4.448-8.966a8.23,8.23,0,0,1,4.448,4.449,8.235,8.235,0,0,1,4.449-4.449,8.234,8.234,0,0,1-4.449-4.448A8.229,8.229,0,0,1,385.566,278.315Z" transform="translate(-143.663 122.538)" fill="#00a9ca"/>
    <path id="Path_80575" data-name="Path 80575" d="M370.153,132.676c-4.227,1.316-5.295,2.384-6.611,6.611-1.316-4.227-2.383-5.295-6.61-6.611,4.227-1.316,5.295-2.383,6.61-6.611C364.859,130.293,365.926,131.36,370.153,132.676Z" transform="translate(-130.794 198.995)" fill="#fff"/>
    <path id="Path_80576" data-name="Path 80576" d="M362.208,139.118h0a1.166,1.166,0,0,1-1.113-.819c-1.206-3.873-1.971-4.638-5.844-5.843a1.166,1.166,0,0,1,0-2.227c3.874-1.206,4.639-1.97,5.844-5.844a1.166,1.166,0,0,1,2.226,0c1.206,3.874,1.971,4.638,5.844,5.844a1.166,1.166,0,0,1,0,2.227c-3.873,1.206-4.638,1.971-5.844,5.843A1.166,1.166,0,0,1,362.208,139.118Zm-3.375-7.776a7.061,7.061,0,0,1,3.375,3.376,7.067,7.067,0,0,1,3.376-3.376,7.069,7.069,0,0,1-3.376-3.376A7.061,7.061,0,0,1,358.833,131.342Z" transform="translate(-129.46 200.329)" fill="#00a9ca" opacity="0.8"/>
    <path id="Path_80577" data-name="Path 80577" d="M142.928,142.89c-4.481,1.4-5.612,2.527-7.008,7.008-1.395-4.481-2.526-5.613-7.007-7.008,4.481-1.395,5.612-2.526,7.007-7.007C137.316,140.364,138.447,141.5,142.928,142.89Z" transform="translate(-9.122 193.756)" fill="#fff"/>
    <path id="Path_80578" data-name="Path 80578" d="M134.586,149.73h0a1.167,1.167,0,0,1-1.113-.819c-1.287-4.136-2.1-4.953-6.24-6.241a1.166,1.166,0,0,1,0-2.227c4.136-1.288,4.953-2.1,6.24-6.24a1.166,1.166,0,0,1,2.227,0c1.288,4.136,2.1,4.953,6.241,6.24a1.166,1.166,0,0,1,0,2.227c-4.136,1.288-4.953,2.1-6.241,6.241A1.166,1.166,0,0,1,134.586,149.73Zm-3.738-8.174a7.507,7.507,0,0,1,3.738,3.738,7.507,7.507,0,0,1,3.738-3.738,7.509,7.509,0,0,1-3.738-3.738A7.506,7.506,0,0,1,130.848,141.557Z" transform="translate(-7.788 195.09)" fill="#00a9ca"/>
    <path id="Path_80579" data-name="Path 80579" d="M77.48,213.293c-5,1.558-6.263,2.82-7.821,7.821-1.557-5-2.819-6.263-7.82-7.821,5-1.557,6.263-2.819,7.82-7.82C71.217,210.474,72.479,211.736,77.48,213.293Z" transform="translate(26.668 156.623)" fill="#fff"/>
    <path id="Path_80580" data-name="Path 80580" d="M68.325,220.946h0a1.165,1.165,0,0,1-1.113-.819c-1.44-4.625-2.429-5.614-7.054-7.054a1.166,1.166,0,0,1,0-2.226c4.625-1.44,5.614-2.429,7.054-7.054a1.166,1.166,0,0,1,2.226,0c1.441,4.625,2.429,5.614,7.054,7.054a1.166,1.166,0,0,1,0,2.226c-4.625,1.441-5.614,2.429-7.055,7.054A1.166,1.166,0,0,1,68.325,220.946Zm-4.468-8.987a8.257,8.257,0,0,1,4.468,4.468,8.255,8.255,0,0,1,4.468-4.468,8.257,8.257,0,0,1-4.468-4.468A8.255,8.255,0,0,1,63.857,211.96Z" transform="translate(28.002 157.957)" fill="#00a9ca" opacity="0.6"/>
    <path id="Path_80581" data-name="Path 80581" d="M122.079,395.759c-3.81,1.186-4.772,2.148-5.959,5.958-1.186-3.81-2.148-4.772-5.957-5.958,3.81-1.187,4.772-2.149,5.957-5.958C117.307,393.611,118.269,394.572,122.079,395.759Z" transform="translate(0.883 58.265)" fill="#fff"/>
    <path id="Path_80582" data-name="Path 80582" d="M114.786,401.549h0a1.166,1.166,0,0,1-1.113-.819c-1.07-3.441-1.749-4.12-5.191-5.191a1.166,1.166,0,0,1,0-2.226c3.442-1.072,4.121-1.752,5.191-5.192a1.166,1.166,0,0,1,2.227,0c1.072,3.441,1.752,4.12,5.192,5.192a1.166,1.166,0,0,1,0,2.226c-3.44,1.071-4.12,1.75-5.192,5.191A1.166,1.166,0,0,1,114.786,401.549ZM112,394.425a6.343,6.343,0,0,1,2.79,2.789,6.344,6.344,0,0,1,2.79-2.789,6.35,6.35,0,0,1-2.79-2.789A6.344,6.344,0,0,1,112,394.425Z" transform="translate(2.217 59.599)" fill="#00a9ca"/>
    <path id="Path_80583" data-name="Path 80583" d="M329.01,376.913c-7.077,2.2-8.863,3.99-11.068,11.068-2.2-7.077-3.99-8.863-11.067-11.068,7.077-2.2,8.863-3.99,11.067-11.067C320.147,372.923,321.933,374.709,329.01,376.913Z" transform="translate(-104.083 71.047)" fill="#fff"/>
    <path id="Path_80584" data-name="Path 80584" d="M316.608,387.813h0a1.166,1.166,0,0,1-1.113-.819c-2.081-6.68-3.621-8.22-10.3-10.3a1.166,1.166,0,0,1,0-2.226c6.68-2.081,8.22-3.621,10.3-10.3a1.166,1.166,0,0,1,2.226,0c2.081,6.68,3.622,8.22,10.3,10.3a1.166,1.166,0,0,1,0,2.226c-6.68,2.081-8.22,3.621-10.3,10.3A1.166,1.166,0,0,1,316.608,387.813Zm-7.551-12.234a11.976,11.976,0,0,1,7.551,7.551,11.98,11.98,0,0,1,7.551-7.551,11.98,11.98,0,0,1-7.551-7.551A11.975,11.975,0,0,1,309.058,375.579Z" transform="translate(-102.749 72.381)" fill="#00a9ca" opacity="0.4"/>
  </g>
</svg>
