<svg xmlns="http://www.w3.org/2000/svg" width="26.165" height="31.362" viewBox="0 0 26.165 31.362">
  <g id="user" transform="translate(0 0)">
    <path id="Path_80314" data-name="Path 80314" d="M94.585,15.107a7.309,7.309,0,0,0,5.341-2.213,7.309,7.309,0,0,0,2.213-5.341,7.31,7.31,0,0,0-2.213-5.341,7.552,7.552,0,0,0-10.681,0,7.309,7.309,0,0,0-2.213,5.34,7.309,7.309,0,0,0,2.213,5.341A7.311,7.311,0,0,0,94.585,15.107Zm0,0" transform="translate(-81.701 0)" fill="#00a9ca"/>
    <path id="Path_80315" data-name="Path 80315" d="M26.1,256.283a18.657,18.657,0,0,0-.254-1.982,15.613,15.613,0,0,0-.487-1.992,9.837,9.837,0,0,0-.819-1.858,7.011,7.011,0,0,0-1.235-1.61,5.445,5.445,0,0,0-1.774-1.115,6.131,6.131,0,0,0-2.265-.41,2.3,2.3,0,0,0-1.228.521c-.368.24-.8.518-1.279.825a7.328,7.328,0,0,1-1.655.729,6.426,6.426,0,0,1-4.048,0,7.307,7.307,0,0,1-1.654-.729c-.476-.3-.907-.582-1.28-.825a2.3,2.3,0,0,0-1.227-.521,6.124,6.124,0,0,0-2.265.41,5.441,5.441,0,0,0-1.774,1.115,7.014,7.014,0,0,0-1.235,1.609A9.859,9.859,0,0,0,.8,252.309,15.64,15.64,0,0,0,.317,254.3a18.591,18.591,0,0,0-.254,1.982c-.042.6-.063,1.223-.063,1.852a5.208,5.208,0,0,0,1.547,3.94,5.568,5.568,0,0,0,3.986,1.454h15.1a5.566,5.566,0,0,0,3.985-1.454,5.205,5.205,0,0,0,1.547-3.94c0-.632-.022-1.255-.063-1.852Zm0,0" transform="translate(0 -232.167)" fill="#00a9ca"/>
  </g>
</svg>
