<svg xmlns="http://www.w3.org/2000/svg" width="109" height="109" viewBox="0 0 109 109">
  <g id="Group_45635" data-name="Group 45635" transform="translate(-126 -366)">
    <g id="Group_45848" data-name="Group 45848">
      <g id="Group_45632" data-name="Group 45632" transform="translate(126 366)">
        <path id="Path_81058" data-name="Path 81058" d="M50.5,0A50.5,50.5,0,1,1,0,50.5,50.5,50.5,0,0,1,50.5,0Z" transform="translate(4 4)" fill="#00a9ca"/>
        <g id="Ellipse_1926" data-name="Ellipse 1926" fill="none" stroke="#00a9ca" stroke-width="1" stroke-dasharray="25">
          <circle cx="54.5" cy="54.5" r="54.5" stroke="none"/>
          <circle cx="54.5" cy="54.5" r="54" fill="none"/>
        </g>
        <g id="Group_45847" data-name="Group 45847" transform="translate(-2261.944 -4281.68)">
          <path id="Path_81048" data-name="Path 81048" d="M228.719,635.916h-26a.371.371,0,0,1,0-.743h26a.371.371,0,0,1,0,.743Z" transform="translate(2078.138 3718.657)" fill="#fff"/>
          <path id="Path_81049" data-name="Path 81049" d="M253.454,659.895H242.682a.371.371,0,0,1,0-.743h10.772a.371.371,0,1,1,0,.743Z" transform="translate(2041.888 3696.907)" fill="#fff"/>
          <path id="Path_81050" data-name="Path 81050" d="M616.382,635.916h-26a.371.371,0,0,1,0-.743h26a.371.371,0,0,1,0,.743Z" transform="translate(1723.116 3718.657)" fill="#fff"/>
          <path id="Path_81051" data-name="Path 81051" d="M444.532,659.895h-26a.371.371,0,1,1,0-.743h26a.371.371,0,0,1,0,.743Z" transform="translate(1880.497 3696.907)" fill="#fff"/>
          <path id="Path_81052" data-name="Path 81052" d="M228.719,681.21h-26a.371.371,0,0,1,0-.743h26a.371.371,0,0,1,0,.743Z" transform="translate(2078.138 3677.573)" fill="#fff"/>
          <path id="Path_81053" data-name="Path 81053" d="M545.2,705.189H534.429a.371.371,0,0,1,0-.743H545.2a.371.371,0,0,1,0,.743Z" transform="translate(1775.064 3655.823)" fill="#fff"/>
          <path id="Path_81054" data-name="Path 81054" d="M294.752,705.189H283.979a.371.371,0,1,1,0-.743h10.773a.371.371,0,1,1,0,.743Z" transform="translate(2004.429 3655.823)" fill="#fff"/>
          <path id="Path_81055" data-name="Path 81055" d="M616.382,681.21h-26a.371.371,0,0,1,0-.743h26a.371.371,0,0,1,0,.743Z" transform="translate(1723.116 3677.573)" fill="#fff"/>
          <path id="Path_81056" data-name="Path 81056" d="M736.278,705.189h-26a.371.371,0,0,1,0-.743h26a.371.371,0,0,1,0,.743Z" transform="translate(1613.316 3655.823)" fill="#fff"/>
        </g>
      </g>
      <path id="Path_81045" data-name="Path 81045" d="M622.189,190.729a1.162,1.162,0,0,0-.537-.637,4.365,4.365,0,0,1-.7-.479.77.77,0,0,1-.246-.769c.115-.326.5-.456.831-.544a89.84,89.84,0,0,0-9.21-.514.554.554,0,0,0-1,.33V198h1.111V191.93l7.917.019a2.83,2.83,0,0,0,1.256-.189A.969.969,0,0,0,622.189,190.729Z" transform="translate(-431.612 214.108)" fill="#fff" opacity="0.46"/>
      <path id="Path_81046" data-name="Path 81046" d="M296.4,315.9V312.57h2.555a3.444,3.444,0,0,0,3.444-3.444H282.961a1.555,1.555,0,0,1,1.555-1.555h13.555v-.387a2.237,2.237,0,0,0-2.042-2.391H279.136a6.985,6.985,0,0,0-6.205,4.333h-2.72a.889.889,0,0,0-.618.25l-1.72,1.667a.889.889,0,0,0,.618,1.527h2.138V315.9h-9.822a.889.889,0,0,0-.664.3l-1.975,2.222a.889.889,0,0,0,.664,1.479h6.109a.889.889,0,0,1,.754.418l1.072,1.714a.889.889,0,0,1-.685,1.358l-13.249,1.025a.889.889,0,0,0-.747.533l-2.806,6.488a.889.889,0,0,0,.816,1.242h44.27a17.811,17.811,0,0,0,3.233-.295A16.715,16.715,0,0,0,311.181,315.9H296.4Zm-22.443-3.333h19.11V315.9h-19.11Zm27.776,7.111a3.555,3.555,0,0,1-3.555,3.555H269.518a3.555,3.555,0,0,1,3.555-3.555Z" transform="translate(-99.693 106.653)" fill="#fff"/>
    </g>
  </g>
</svg>
