<svg xmlns="http://www.w3.org/2000/svg" width="17.925" height="17.961" viewBox="0 0 17.925 17.961">
  <g id="Group_45675" data-name="Group 45675" transform="translate(-323.044 -483.02)">
    <path id="Path_81004" data-name="Path 81004" d="M-390.349,900.407q-2.056,0-4.112,0a.7.7,0,0,1-.707-.6.7.7,0,0,1,.525-.782.842.842,0,0,1,.208-.019h8.189a.692.692,0,0,1,.737.7.694.694,0,0,1-.745.706Z" transform="translate(722.175 -411.845)" fill="#161617"/>
    <g id="Group_45674" data-name="Group 45674">
      <path id="Path_81003" data-name="Path 81003" d="M-470.639,828.453h-9.033c-.073-.014-.146-.031-.219-.043a4.213,4.213,0,0,1-3.561-4.179q0-4.759,0-9.518a3.6,3.6,0,0,1,.033-.524,4.116,4.116,0,0,1,2.77-3.452,8.161,8.161,0,0,1,.976-.245h10.363a.6.6,0,0,0,.1.033,4.147,4.147,0,0,1,3.529,3.043,7.261,7.261,0,0,1,.155.713v9.05a.761.761,0,0,0-.034.116,3.7,3.7,0,0,1-.947,2.1c-.608.653-1.244,1.281-1.888,1.9a3.56,3.56,0,0,1-1.615.867C-470.218,828.37-470.429,828.408-470.639,828.453Zm3.712-6.239v-.146q0-3.674,0-7.348a2.669,2.669,0,0,0-.051-.522,2.8,2.8,0,0,0-2.811-2.3q-4.7,0-9.4,0a2.887,2.887,0,0,0-.556.049,2.8,2.8,0,0,0-2.306,2.81q0,4.717,0,9.435a2.837,2.837,0,0,0,.051.557,2.8,2.8,0,0,0,2.812,2.3q3.623,0,7.246,0h.188v-.205c0-.614-.008-1.228,0-1.841a2.748,2.748,0,0,1,.8-1.94,2.755,2.755,0,0,1,2.006-.849C-468.277,822.207-467.613,822.214-466.927,822.214Zm-.107,1.424c-.69,0-1.365-.021-2.038.006a1.325,1.325,0,0,0-1.255,1.255c-.029.665-.011,1.331-.013,2,0,.014.016.028.027.045a2.13,2.13,0,0,0,.9-.479q.961-.932,1.891-1.9A2.063,2.063,0,0,0-467.034,823.637Z" transform="translate(806.497 -327.472)" fill="#161617"/>
      <path id="Path_81006" data-name="Path 81006" d="M1847.162,228c.758-.763,1.453-1.483,2.177-2.172a.774.774,0,0,1,.59-.191c.378.076.446.542.143.853-.532.546-1.076,1.079-1.615,1.618-.286.286-.569.576-.86.857a.522.522,0,0,1-.838.013q-.665-.648-1.313-1.313a.494.494,0,0,1-.041-.756.513.513,0,0,1,.758.067C1846.491,227.3,1846.809,227.636,1847.162,228Z" transform="translate(-1517.747 265.448)" stroke="#161617" stroke-width="0.5"/>
    </g>
  </g>
</svg>
